STARTFONT 2.1
FONT -FontForge-Letters for Learners-Book-R-Normal--36-350-75-75-P-137-ISO10646-1
SIZE 35 75 75
FONTBOUNDINGBOX 31 39 -5 -9
COMMENT "Generated by fontforge, http://fontforge.sourceforge.net"
COMMENT "Copyright (c) 2017 by Brittney Murphy. All rights reserved."
STARTPROPERTIES 40
FOUNDRY "FontForge"
FAMILY_NAME "Letters for Learners"
WEIGHT_NAME "Book"
SLANT "R"
SETWIDTH_NAME "Normal"
ADD_STYLE_NAME ""
PIXEL_SIZE 36
POINT_SIZE 350
RESOLUTION_X 75
RESOLUTION_Y 75
SPACING "P"
AVERAGE_WIDTH 137
CHARSET_REGISTRY "ISO10646"
CHARSET_ENCODING "1"
FONTNAME_REGISTRY ""
CHARSET_COLLECTIONS "ISO8859-2 ISO8859-9 ISO8859-4 ISO10646-1"
FONT_NAME "LettersforLearners"
FACE_NAME "Letters for Learners"
COPYRIGHT "Copyright (c) 2017 by Brittney Murphy. All rights reserved."
FONT_VERSION "1.000"
FONT_ASCENT 27
FONT_DESCENT 9
UNDERLINE_POSITION -4
UNDERLINE_THICKNESS 2
X_HEIGHT 12
CAP_HEIGHT 21
DEFAULT_CHAR 1
RAW_ASCENT 750
RAW_DESCENT 250
NORM_SPACE 10
RELATIVE_WEIGHT 40
RELATIVE_SETWIDTH 50
SUPERSCRIPT_X 0
SUPERSCRIPT_Y 17
SUPERSCRIPT_SIZE 23
SUBSCRIPT_X 0
SUBSCRIPT_Y 5
SUBSCRIPT_SIZE 23
AVG_LOWERCASE_WIDTH 128
AVG_UPPERCASE_WIDTH 169
ENDPROPERTIES
CHARS 370
STARTCHAR NULL.dup1
ENCODING 0
SWIDTH 0 0
DWIDTH 0 0
BBX 1 1 0 0
BITMAP
00
ENDCHAR
STARTCHAR nonmarkingreturn
ENCODING 13
SWIDTH 294 0
DWIDTH 11 0
BBX 1 1 0 0
BITMAP
00
ENDCHAR
STARTCHAR space
ENCODING 32
SWIDTH 280 0
DWIDTH 10 0
BBX 1 1 0 0
BITMAP
00
ENDCHAR
STARTCHAR exclam
ENCODING 33
SWIDTH 170 0
DWIDTH 6 0
BBX 2 22 2 0
BITMAP
80
C0
C0
C0
C0
C0
C0
C0
C0
C0
C0
C0
C0
C0
C0
C0
C0
C0
C0
00
80
C0
ENDCHAR
STARTCHAR quotedbl
ENCODING 34
SWIDTH 200 0
DWIDTH 8 0
BBX 6 9 1 11
BITMAP
CC
CC
CC
CC
CC
CC
CC
CC
CC
ENDCHAR
STARTCHAR numbersign
ENCODING 35
SWIDTH 507 0
DWIDTH 18 0
BBX 16 16 1 2
BITMAP
0C30
0C30
0C30
0C30
FFFF
FFFF
0C30
0C30
0C30
0C30
FFFF
FFFF
0C30
0C30
0C30
0C30
ENDCHAR
STARTCHAR dollar
ENCODING 36
SWIDTH 328 0
DWIDTH 12 0
BBX 10 21 1 0
BITMAP
0C00
0C00
0C00
0C00
3F00
7F80
CC80
CC00
EC00
7C00
1F80
0DC0
0CC0
0CC0
EDC0
FF80
1C00
0C00
0C00
0C00
0C00
ENDCHAR
STARTCHAR percent
ENCODING 37
SWIDTH 573 0
DWIDTH 21 0
BBX 19 21 1 0
BITMAP
000C00
000C00
3C1800
7E1800
E71800
C33000
C33000
C36000
E76000
7E6780
3CCFC0
00DCE0
019860
019860
031860
031CE0
030FC0
060780
060000
0C0000
0C0000
ENDCHAR
STARTCHAR ampersand
ENCODING 38
SWIDTH 358 0
DWIDTH 13 0
BBX 11 21 1 -1
BITMAP
1C00
3E00
6300
6300
6300
6300
3600
3600
1400
1C00
1800
3C00
2C00
4E00
4620
87E0
C3C0
7F80
3C80
00C0
0040
ENDCHAR
STARTCHAR quotesingle
ENCODING 39
SWIDTH 89 0
DWIDTH 4 0
BBX 2 9 1 11
BITMAP
C0
C0
C0
C0
C0
C0
C0
C0
C0
ENDCHAR
STARTCHAR parenleft
ENCODING 40
SWIDTH 288 0
DWIDTH 10 0
BBX 9 26 1 -2
BITMAP
0100
0300
0600
0C00
1800
3000
3000
6000
6000
6000
C000
C000
C000
C000
C000
C000
C000
6000
6000
3000
3000
1800
0C00
0700
0380
0100
ENDCHAR
STARTCHAR parenright
ENCODING 41
SWIDTH 289 0
DWIDTH 10 0
BBX 9 26 0 -2
BITMAP
8000
E000
7000
1C00
0C00
0600
0300
0300
0180
0180
0180
0180
0180
0180
0180
0180
0180
0300
0300
0300
0600
0C00
1C00
3800
7000
2000
ENDCHAR
STARTCHAR asterisk
ENCODING 42
SWIDTH 269 0
DWIDTH 10 0
BBX 10 10 0 5
BITMAP
0C00
0C00
4C80
FFC0
3F00
1F00
7F80
ECC0
0C00
0C00
ENDCHAR
STARTCHAR plus
ENCODING 43
SWIDTH 311 0
DWIDTH 11 0
BBX 10 11 0 3
BITMAP
0C00
0C00
0C00
0C00
FFC0
FFC0
0C00
0C00
0C00
0C00
0800
ENDCHAR
STARTCHAR comma
ENCODING 44
SWIDTH 111 0
DWIDTH 4 0
BBX 4 6 0 -4
BITMAP
60
20
30
30
60
C0
ENDCHAR
STARTCHAR hyphen
ENCODING 45
SWIDTH 262 0
DWIDTH 9 0
BBX 9 2 0 8
BITMAP
7F80
FF80
ENDCHAR
STARTCHAR period
ENCODING 46
SWIDTH 69 0
DWIDTH 2 0
BBX 2 2 0 0
BITMAP
C0
40
ENDCHAR
STARTCHAR slash
ENCODING 47
SWIDTH 237 0
DWIDTH 9 0
BBX 8 22 0 -1
BITMAP
03
03
03
06
06
06
04
0C
0C
0C
18
18
18
10
30
30
30
60
60
60
40
C0
ENDCHAR
STARTCHAR zero
ENCODING 48
SWIDTH 492 0
DWIDTH 18 0
BBX 16 21 1 0
BITMAP
07E0
0C70
1818
300C
6006
6006
4002
C003
C003
C003
C003
C003
C003
C003
C007
6006
600E
300C
3C38
1FF0
07E0
ENDCHAR
STARTCHAR one
ENCODING 49
SWIDTH 177 0
DWIDTH 6 0
BBX 2 21 2 0
BITMAP
C0
C0
C0
C0
C0
C0
C0
C0
C0
C0
C0
C0
C0
C0
C0
C0
C0
C0
C0
C0
C0
ENDCHAR
STARTCHAR two
ENCODING 50
SWIDTH 400 0
DWIDTH 14 0
BBX 13 22 1 0
BITMAP
0700
1F80
38C0
6060
6060
C060
0060
0040
00C0
0180
0180
0300
0700
0600
0C00
1800
3800
3000
6000
E000
FFF8
FFF8
ENDCHAR
STARTCHAR three
ENCODING 51
SWIDTH 445 0
DWIDTH 16 0
BBX 14 22 1 -1
BITMAP
3F80
7FE0
C070
0038
0018
0018
0018
0038
0070
01E0
3FC0
3FF0
0078
0018
000C
000C
000C
000C
0018
E070
7FE0
0F00
ENDCHAR
STARTCHAR four
ENCODING 52
SWIDTH 394 0
DWIDTH 15 0
BBX 13 22 1 0
BITMAP
C060
C060
C060
C060
C060
C060
C060
C060
C060
C060
C060
FFF8
FFF8
0060
0060
0060
0060
0060
0060
0060
0060
0060
ENDCHAR
STARTCHAR five
ENCODING 53
SWIDTH 421 0
DWIDTH 15 0
BBX 13 21 1 0
BITMAP
7FE0
7FF0
6000
6000
6000
6000
6000
6000
6000
7F80
7FE0
00F0
0038
0018
0018
0018
0018
0038
4070
FFE0
1F00
ENDCHAR
STARTCHAR six
ENCODING 54
SWIDTH 389 0
DWIDTH 14 0
BBX 12 22 1 0
BITMAP
0800
1800
1800
3000
3000
2000
6000
6000
6000
4000
CFC0
F860
E030
C010
C010
C010
C010
6030
6030
70E0
3FC0
0F80
ENDCHAR
STARTCHAR seven
ENCODING 55
SWIDTH 315 0
DWIDTH 11 0
BBX 11 22 0 -1
BITMAP
FFE0
FFE0
0060
0040
00C0
00C0
00C0
0180
0180
0180
0100
0300
0300
0200
0600
0600
0600
0C00
0C00
0C00
0800
1800
ENDCHAR
STARTCHAR eight
ENCODING 56
SWIDTH 435 0
DWIDTH 16 0
BBX 13 22 1 0
BITMAP
0600
3FC0
70E0
6030
C018
C018
C018
C018
E030
7070
3FC0
3FC0
7070
E030
C018
C018
C018
C018
E030
7070
3FE0
0F80
ENDCHAR
STARTCHAR nine
ENCODING 57
SWIDTH 392 0
DWIDTH 15 0
BBX 12 22 1 -1
BITMAP
1F30
3FF0
70F0
E070
C030
C030
C030
C030
E070
70F0
3FF0
1F30
0030
0030
0030
0030
0030
0030
0030
0030
0030
0020
ENDCHAR
STARTCHAR colon
ENCODING 58
SWIDTH 89 0
DWIDTH 3 0
BBX 1 8 1 2
BITMAP
80
80
00
00
00
00
80
80
ENDCHAR
STARTCHAR semicolon
ENCODING 59
SWIDTH 131 0
DWIDTH 5 0
BBX 3 12 1 -2
BITMAP
C0
40
00
00
00
40
C0
60
60
60
C0
80
ENDCHAR
STARTCHAR less
ENCODING 60
SWIDTH 299 0
DWIDTH 11 0
BBX 10 13 0 0
BITMAP
0100
0380
0700
0E00
1C00
3800
7000
E000
7000
3C00
0F00
0380
00C0
ENDCHAR
STARTCHAR equal
ENCODING 61
SWIDTH 307 0
DWIDTH 11 0
BBX 9 6 1 6
BITMAP
FF80
FF80
0000
0000
FF80
FF80
ENDCHAR
STARTCHAR greater
ENCODING 62
SWIDTH 291 0
DWIDTH 10 0
BBX 9 13 1 0
BITMAP
8000
E000
7000
1800
0E00
0700
0380
0380
0700
1E00
3800
6000
C000
ENDCHAR
STARTCHAR question
ENCODING 63
SWIDTH 307 0
DWIDTH 12 0
BBX 10 21 1 0
BITMAP
FE00
C700
0180
01C0
00C0
00C0
00C0
01C0
0180
0700
3E00
3000
3000
3000
3000
3000
3000
0000
0000
3000
3000
ENDCHAR
STARTCHAR at
ENCODING 64
SWIDTH 676 0
DWIDTH 24 0
BBX 22 22 1 -4
BITMAP
00FC00
07FF80
0F03C0
1C00E0
380070
700238
60FB18
C1FF18
C3070C
C6030C
C6030C
C6030C
C6030C
C7070C
C38F18
E1FDB8
60F9F0
300040
380000
1E00C0
07CFC0
01FF00
ENDCHAR
STARTCHAR A
ENCODING 65
SWIDTH 442 0
DWIDTH 16 0
BBX 16 23 0 -1
BITMAP
0100
0180
0380
03C0
02C0
06C0
0660
0460
0C60
0C30
0C30
1830
1818
1818
1FF8
3F0C
300C
200C
6006
6006
6006
C002
4003
ENDCHAR
STARTCHAR B
ENCODING 66
SWIDTH 450 0
DWIDTH 16 0
BBX 13 21 2 0
BITMAP
FF80
FFE0
C0E0
C070
C030
C030
C030
C060
C1C0
FF80
FFE0
C070
C030
C018
C018
C018
C018
C038
C070
FFE0
FF80
ENDCHAR
STARTCHAR C
ENCODING 67
SWIDTH 427 0
DWIDTH 15 0
BBX 14 21 1 0
BITMAP
0F80
1DC0
3060
7060
6030
6020
C000
C000
C000
C000
C000
C000
C000
C000
6008
600C
6018
3038
3870
1FE0
0780
ENDCHAR
STARTCHAR D
ENCODING 68
SWIDTH 492 0
DWIDTH 18 0
BBX 15 22 2 0
BITMAP
FC00
FF80
C3C0
C0F0
C038
C018
C00C
C00C
C006
C006
C006
C006
C006
C006
C00C
C00C
C018
C038
C0F0
C7C0
FF00
F800
ENDCHAR
STARTCHAR E
ENCODING 69
SWIDTH 445 0
DWIDTH 16 0
BBX 13 21 2 0
BITMAP
FFF8
FFF8
C000
C000
C000
C000
C000
C000
C000
FFF0
FFF8
C000
C000
C000
C000
C000
C000
C000
C000
FFF8
FFF8
ENDCHAR
STARTCHAR F
ENCODING 70
SWIDTH 398 0
DWIDTH 14 0
BBX 12 22 2 -1
BITMAP
FFF0
FFF0
C000
C000
C000
C000
C000
C000
C000
C000
FFE0
FFE0
C000
C000
C000
C000
C000
C000
C000
C000
C000
C000
ENDCHAR
STARTCHAR G
ENCODING 71
SWIDTH 488 0
DWIDTH 18 0
BBX 16 22 1 0
BITMAP
07C0
0FF0
1C38
301C
700C
6004
6000
C000
C000
C000
C1FF
C1FF
C003
C003
6003
6006
6006
300E
380C
1C38
0FF0
07E0
ENDCHAR
STARTCHAR H
ENCODING 72
SWIDTH 502 0
DWIDTH 18 0
BBX 14 22 2 0
BITMAP
8008
C00C
C00C
C00C
C00C
C00C
C00C
C00C
C00C
C00C
FFFC
FFFC
C00C
C00C
C00C
C00C
C00C
C00C
C00C
C00C
C00C
C00C
ENDCHAR
STARTCHAR I
ENCODING 73
SWIDTH 368 0
DWIDTH 13 0
BBX 12 21 0 0
BITMAP
FFF0
FFF0
0600
0600
0600
0600
0600
0600
0600
0600
0600
0600
0600
0600
0600
0600
0600
0600
0600
FFF0
FFF0
ENDCHAR
STARTCHAR J
ENCODING 74
SWIDTH 395 0
DWIDTH 14 0
BBX 12 22 0 0
BITMAP
0030
0030
0030
0030
0030
0030
0030
0030
0030
0030
0030
0030
0030
0030
0030
0030
C030
C060
6060
30C0
1F80
0F00
ENDCHAR
STARTCHAR K
ENCODING 75
SWIDTH 440 0
DWIDTH 16 0
BBX 14 21 2 0
BITMAP
C060
C0E0
C1C0
C380
C700
C600
CC00
D800
F000
E000
E000
F000
F800
CC00
C700
C380
C1C0
C060
C038
C01C
C00C
ENDCHAR
STARTCHAR L
ENCODING 76
SWIDTH 388 0
DWIDTH 14 0
BBX 12 22 2 0
BITMAP
8000
C000
C000
C000
C000
C000
C000
C000
C000
C000
C000
C000
C000
C000
C000
C000
C000
C000
C000
C000
FFF0
FFF0
ENDCHAR
STARTCHAR M
ENCODING 77
SWIDTH 628 0
DWIDTH 23 0
BBX 20 22 1 0
BITMAP
200000
7000E0
7000E0
7800E0
7801E0
7801E0
6C0360
6C0360
6C0360
660620
660620
420630
430C30
430C30
410C30
C19830
C19830
C0D030
C0F030
C0F010
C06010
C06010
ENDCHAR
STARTCHAR N
ENCODING 78
SWIDTH 475 0
DWIDTH 18 0
BBX 14 22 2 0
BITMAP
0008
C00C
E00C
E00C
F00C
F80C
D80C
CC0C
CC0C
C60C
C70C
C30C
C18C
C18C
C0CC
C0EC
C06C
C03C
C03C
C01C
C01C
C00C
ENDCHAR
STARTCHAR O
ENCODING 79
SWIDTH 517 0
DWIDTH 19 0
BBX 17 21 1 0
BITMAP
07F000
0E3800
180C00
300600
600300
600300
400100
C00180
C00180
C00180
C00180
C00180
C00180
C00180
E00300
600300
700700
380E00
1C1C00
0FF800
07E000
ENDCHAR
STARTCHAR P
ENCODING 80
SWIDTH 432 0
DWIDTH 16 0
BBX 13 21 2 0
BITMAP
FF80
FFE0
C070
C038
C018
C018
C018
C018
C038
C070
FFE0
FF80
C000
C000
C000
C000
C000
C000
C000
C000
C000
ENDCHAR
STARTCHAR Q
ENCODING 81
SWIDTH 516 0
DWIDTH 19 0
BBX 17 23 1 -2
BITMAP
07F000
0E3800
180C00
300600
600300
600300
400100
C00180
C00180
C00180
C00180
C00180
C00180
C06180
E07300
603300
701F00
381E00
1C1C00
0FFE00
07E600
000300
000180
ENDCHAR
STARTCHAR R
ENCODING 82
SWIDTH 470 0
DWIDTH 17 0
BBX 14 21 2 0
BITMAP
FF80
FFE0
C070
C038
C018
C018
C018
C018
C038
C070
FFE0
FF80
C180
C0C0
C060
C060
C030
C038
C018
C00C
C00C
ENDCHAR
STARTCHAR S
ENCODING 83
SWIDTH 469 0
DWIDTH 17 0
BBX 15 21 1 0
BITMAP
1FE0
3FF8
7018
E000
C000
C000
C000
E000
7000
3E00
0FE0
01F8
001C
000E
0006
0006
0006
000C
E01C
7FF0
1FC0
ENDCHAR
STARTCHAR T
ENCODING 84
SWIDTH 381 0
DWIDTH 14 0
BBX 13 22 1 -1
BITMAP
FFF8
FFF8
0600
0600
0600
0600
0600
0600
0600
0600
0600
0600
0600
0600
0600
0600
0600
0600
0600
0600
0600
0400
ENDCHAR
STARTCHAR U
ENCODING 85
SWIDTH 496 0
DWIDTH 18 0
BBX 16 22 1 0
BITMAP
C003
C003
C003
C003
C003
C003
C003
C003
C003
C003
C003
C003
C003
C003
C003
E006
6006
6006
300C
3C3C
1FF8
07E0
ENDCHAR
STARTCHAR V
ENCODING 86
SWIDTH 426 0
DWIDTH 15 0
BBX 15 21 0 0
BITMAP
C006
4006
6004
600C
200C
300C
3008
1018
1818
1810
0830
0C30
0C30
0420
0660
0660
0240
0340
03C0
01C0
0180
ENDCHAR
STARTCHAR W
ENCODING 87
SWIDTH 692 0
DWIDTH 25 0
BBX 23 21 1 0
BITMAP
C00006
C03806
C03806
C03806
C06C06
406C04
606404
60C60C
60C60C
60C30C
21830C
31830C
318188
310188
330088
1300D8
1200D8
1E0058
1E0078
1C0070
0C0030
ENDCHAR
STARTCHAR X
ENCODING 88
SWIDTH 430 0
DWIDTH 15 0
BBX 14 22 1 0
BITMAP
8008
C018
6018
6030
3030
1860
18C0
0CC0
0D80
0780
0300
0700
0780
0D80
0CC0
18E0
3860
3030
6030
6018
C018
C00C
ENDCHAR
STARTCHAR Y
ENCODING 89
SWIDTH 386 0
DWIDTH 14 0
BBX 14 21 0 0
BITMAP
C00C
6018
6018
3030
3030
1860
1860
0CC0
0CC0
0780
0780
0300
0300
0300
0300
0300
0300
0300
0300
0300
0300
ENDCHAR
STARTCHAR Z
ENCODING 90
SWIDTH 407 0
DWIDTH 15 0
BBX 13 21 1 0
BITMAP
FFF8
FFF0
0030
0060
0060
00C0
00C0
0180
0300
0300
0600
0600
0C00
0800
1800
3000
3000
6000
4000
FFF8
FFF8
ENDCHAR
STARTCHAR bracketleft
ENCODING 91
SWIDTH 258 0
DWIDTH 9 0
BBX 7 23 2 -1
BITMAP
FC
FC
C0
C0
C0
C0
C0
C0
C0
C0
C0
C0
C0
C0
C0
C0
C0
C0
C0
C0
C0
FE
FE
ENDCHAR
STARTCHAR backslash
ENCODING 92
SWIDTH 236 0
DWIDTH 9 0
BBX 8 22 0 -1
BITMAP
C0
60
60
60
60
30
30
30
18
18
18
08
0C
0C
0C
06
06
06
02
03
03
01
ENDCHAR
STARTCHAR bracketright
ENCODING 93
SWIDTH 258 0
DWIDTH 9 0
BBX 7 23 0 -1
BITMAP
7E
FE
02
02
02
02
02
02
02
02
02
02
02
02
02
02
02
02
02
02
02
7E
7E
ENDCHAR
STARTCHAR asciicircum
ENCODING 94
SWIDTH 280 0
DWIDTH 10 0
BBX 12 21 -1 0
BITMAP
FFF0
0000
0000
0000
0000
0000
0000
0000
0000
6C80
0000
0000
0000
0000
0000
0000
0000
0000
0000
0000
FFF0
ENDCHAR
STARTCHAR underscore
ENCODING 95
SWIDTH 262 0
DWIDTH 9 0
BBX 9 2 0 0
BITMAP
7F80
FF80
ENDCHAR
STARTCHAR grave
ENCODING 96
SWIDTH 147 0
DWIDTH 5 0
BBX 5 5 0 14
BITMAP
40
E0
60
30
18
ENDCHAR
STARTCHAR a
ENCODING 97
SWIDTH 366 0
DWIDTH 13 0
BBX 10 14 1 0
BITMAP
0080
00C0
1EC0
3FC0
61C0
C0C0
C0C0
C0C0
C0C0
C0C0
61C0
7FC0
1EC0
00C0
ENDCHAR
STARTCHAR b
ENCODING 98
SWIDTH 414 0
DWIDTH 15 0
BBX 12 21 2 0
BITMAP
C000
C000
C000
C000
C000
C000
C000
C000
C000
DFC0
F9E0
E060
E030
C030
C030
C030
C070
E0E0
FFC0
5F80
4000
ENDCHAR
STARTCHAR c
ENCODING 99
SWIDTH 369 0
DWIDTH 13 0
BBX 12 13 1 0
BITMAP
1F00
3380
60C0
C0C0
C000
C000
C000
C000
E020
6070
70E0
3FC0
0F00
ENDCHAR
STARTCHAR d
ENCODING 100
SWIDTH 408 0
DWIDTH 15 0
BBX 12 21 1 0
BITMAP
0030
0030
0030
0030
0030
0030
0030
0030
0F30
3FF0
70F0
6070
C030
C030
C030
C030
4030
6070
39F0
1FB0
0030
ENDCHAR
STARTCHAR e
ENCODING 101
SWIDTH 387 0
DWIDTH 14 0
BBX 12 13 1 0
BITMAP
1F80
30C0
6060
C020
C1F0
FFE0
FE00
C000
C030
6070
70E0
3FC0
0F00
ENDCHAR
STARTCHAR f
ENCODING 102
SWIDTH 314 0
DWIDTH 11 0
BBX 11 21 0 0
BITMAP
0780
0FC0
1860
1800
1800
1800
1800
1800
FF80
FF80
1800
1800
1800
1800
1800
1800
1800
1800
1800
1800
1800
ENDCHAR
STARTCHAR g
ENCODING 103
SWIDTH 395 0
DWIDTH 14 0
BBX 11 21 1 -8
BITMAP
0060
1F60
3FE0
71E0
E0E0
C060
C060
C060
C060
E0E0
71E0
3FE0
1F60
0060
0060
0060
0060
20C0
31C0
3F80
0F00
ENDCHAR
STARTCHAR h
ENCODING 104
SWIDTH 408 0
DWIDTH 14 0
BBX 11 22 2 -1
BITMAP
C000
C000
C000
C000
C000
C000
C000
C000
C000
CF00
DF80
F1C0
E0C0
E060
C060
C060
C060
C060
C060
C060
C060
C000
ENDCHAR
STARTCHAR i
ENCODING 105
SWIDTH 175 0
DWIDTH 6 0
BBX 2 18 2 -1
BITMAP
C0
C0
00
00
C0
C0
C0
C0
C0
C0
C0
C0
C0
C0
C0
C0
C0
80
ENDCHAR
STARTCHAR j
ENCODING 106
SWIDTH 166 0
DWIDTH 6 0
BBX 9 25 -5 -8
BITMAP
0180
0180
0000
0180
0180
0180
0180
0180
0180
0180
0180
0180
0180
0180
0180
0180
0180
0180
0180
0180
8180
C300
E300
7E00
3C00
ENDCHAR
STARTCHAR k
ENCODING 107
SWIDTH 376 0
DWIDTH 14 0
BBX 11 21 2 0
BITMAP
C000
C000
C000
C000
C000
C000
C000
C000
C100
C380
C700
CC00
D800
F000
E000
F000
FC00
CF00
C380
C0E0
C060
ENDCHAR
STARTCHAR l
ENCODING 108
SWIDTH 177 0
DWIDTH 6 0
BBX 2 21 2 0
BITMAP
C0
C0
C0
C0
C0
C0
C0
C0
C0
C0
C0
C0
C0
C0
C0
C0
C0
C0
C0
C0
C0
ENDCHAR
STARTCHAR m
ENCODING 109
SWIDTH 623 0
DWIDTH 22 0
BBX 19 13 2 0
BITMAP
CF0700
DF9F80
F199C0
F0F0C0
E0F0C0
E0F060
E06060
C06060
C06060
C06060
C06060
C06060
C06060
ENDCHAR
STARTCHAR n
ENCODING 110
SWIDTH 399 0
DWIDTH 14 0
BBX 11 14 2 0
BITMAP
C000
CF00
FF80
F1C0
E0C0
C0C0
C060
C060
C060
C060
C060
C060
C060
C060
ENDCHAR
STARTCHAR o
ENCODING 111
SWIDTH 368 0
DWIDTH 13 0
BBX 11 12 1 0
BITMAP
1F00
3F80
71C0
E0E0
C060
C060
C060
C060
E0E0
71C0
3F80
1F00
ENDCHAR
STARTCHAR p
ENCODING 112
SWIDTH 392 0
DWIDTH 14 0
BBX 11 21 2 -8
BITMAP
C000
CF00
FFC0
F0C0
E060
C060
C060
C060
C060
E060
F1C0
FFC0
DF00
C000
C000
C000
C000
C000
C000
C000
C000
ENDCHAR
STARTCHAR q
ENCODING 113
SWIDTH 388 0
DWIDTH 14 0
BBX 17 22 1 -9
BITMAP
006000
1F6000
3FE000
71E000
E0E000
C06000
C06000
C06000
C06000
E0E000
71E000
3FE000
1E6000
006000
006000
006000
006000
006000
003180
003300
001F00
000C00
ENDCHAR
STARTCHAR r
ENCODING 114
SWIDTH 271 0
DWIDTH 10 0
BBX 8 13 2 0
BITMAP
C0
DC
FE
E3
C0
C0
C0
C0
C0
C0
C0
C0
C0
ENDCHAR
STARTCHAR s
ENCODING 115
SWIDTH 328 0
DWIDTH 12 0
BBX 9 13 2 0
BITMAP
1C00
7F00
E180
C000
C000
F000
7E00
0F00
0380
0180
8180
FF00
7E00
ENDCHAR
STARTCHAR t
ENCODING 116
SWIDTH 278 0
DWIDTH 10 0
BBX 10 20 0 0
BITMAP
0C00
0C00
0C00
0C00
0C00
0C00
0C00
7FC0
FFC0
0C00
0C00
0C00
0C00
0C00
0C00
0C00
0C00
0C00
0C00
0C00
ENDCHAR
STARTCHAR u
ENCODING 117
SWIDTH 390 0
DWIDTH 14 0
BBX 11 13 1 0
BITMAP
C060
C060
C060
C060
C060
C060
C060
C0E0
60E0
60E0
71E0
3F60
1E60
ENDCHAR
STARTCHAR v
ENCODING 118
SWIDTH 322 0
DWIDTH 12 0
BBX 10 13 1 0
BITMAP
8000
C0C0
C0C0
C180
6180
6180
2300
3300
3300
1A00
1E00
1E00
0C00
ENDCHAR
STARTCHAR w
ENCODING 119
SWIDTH 501 0
DWIDTH 18 0
BBX 16 13 1 0
BITMAP
8000
C183
C383
C383
C2C3
46C6
6666
6466
6C64
2C34
383C
381C
3818
ENDCHAR
STARTCHAR x
ENCODING 120
SWIDTH 329 0
DWIDTH 12 0
BBX 10 14 1 -1
BITMAP
C080
C180
6300
3600
3600
1C00
1C00
1E00
3600
7300
6380
C180
C0C0
0040
ENDCHAR
STARTCHAR y
ENCODING 121
SWIDTH 337 0
DWIDTH 12 0
BBX 10 21 1 -8
BITMAP
0040
C040
C0C0
40C0
6080
6180
3180
3100
1B00
1B00
0F00
0E00
0600
0600
0C00
0C00
0C00
1800
1800
1800
1000
ENDCHAR
STARTCHAR z
ENCODING 122
SWIDTH 325 0
DWIDTH 12 0
BBX 10 13 1 0
BITMAP
7F80
FF80
0180
0300
0600
0C00
0C00
1800
3000
6000
6000
FFC0
FFC0
ENDCHAR
STARTCHAR braceleft
ENCODING 123
SWIDTH 326 0
DWIDTH 12 0
BBX 11 23 0 -1
BITMAP
0700
1F80
1000
3000
1000
1800
1800
1800
1800
1800
1800
7800
F800
1800
0800
0800
0800
0800
0800
0800
0C00
0FE0
07E0
ENDCHAR
STARTCHAR bar
ENCODING 124
SWIDTH 177 0
DWIDTH 6 0
BBX 2 31 2 -5
BITMAP
C0
C0
C0
C0
C0
C0
C0
C0
C0
C0
C0
C0
C0
C0
C0
C0
C0
C0
C0
C0
C0
C0
C0
C0
C0
C0
C0
C0
C0
C0
C0
ENDCHAR
STARTCHAR braceright
ENCODING 125
SWIDTH 315 0
DWIDTH 11 0
BBX 11 23 0 -1
BITMAP
7C00
FF00
0300
0300
0300
0300
0300
0300
0300
0300
0380
01E0
01C0
0300
0300
0300
0300
0300
0300
0300
0300
7E00
3800
ENDCHAR
STARTCHAR asciitilde
ENCODING 126
SWIDTH 344 0
DWIDTH 12 0
BBX 11 5 1 6
BITMAP
3000
7C40
CEE0
C7C0
8380
ENDCHAR
STARTCHAR exclamdown
ENCODING 161
SWIDTH 170 0
DWIDTH 6 0
BBX 2 22 2 0
BITMAP
80
C0
00
00
C0
C0
C0
C0
C0
C0
C0
C0
C0
C0
C0
C0
C0
C0
C0
C0
C0
C0
ENDCHAR
STARTCHAR cent
ENCODING 162
SWIDTH 369 0
DWIDTH 13 0
BBX 12 21 1 0
BITMAP
0C00
0C00
0C00
0C00
3F00
7D80
6C80
CCC0
CC00
CC00
CC00
CC00
CC20
6C70
7DE0
3F80
0E00
0C00
0C00
0C00
0C00
ENDCHAR
STARTCHAR sterling
ENCODING 163
SWIDTH 444 0
DWIDTH 16 0
BBX 16 22 0 0
BITMAP
00F0
03FC
070E
0606
0E02
0C00
0C00
0C00
0C00
0C00
0C00
3FF0
3FF0
0C00
0C00
0C00
0C00
0C00
0C00
0C00
FFFE
FFFF
ENDCHAR
STARTCHAR currency
ENCODING 164
SWIDTH 407 0
DWIDTH 14 0
BBX 11 16 2 3
BITMAP
8020
C060
DFC0
7F80
71C0
E0C0
C060
C060
C060
C060
E0C0
71C0
3F80
7FC0
C060
C060
ENDCHAR
STARTCHAR yen
ENCODING 165
SWIDTH 386 0
DWIDTH 14 0
BBX 14 21 0 0
BITMAP
C008
C00C
6018
2030
3030
1060
1860
0CC0
0CC0
0780
0780
3FF0
3FF0
0300
0300
3FF0
3FF0
0300
0300
0300
0300
ENDCHAR
STARTCHAR brokenbar
ENCODING 166
SWIDTH 177 0
DWIDTH 6 0
BBX 2 31 2 -5
BITMAP
C0
C0
C0
C0
C0
C0
C0
C0
C0
C0
C0
C0
C0
00
00
00
00
00
C0
C0
C0
C0
C0
C0
C0
C0
C0
C0
C0
C0
C0
ENDCHAR
STARTCHAR section
ENCODING 167
SWIDTH 328 0
DWIDTH 12 0
BBX 9 18 2 0
BITMAP
0C00
7F00
6180
C000
C000
E000
7C00
EF00
C380
C180
E180
7F80
0F00
0380
0180
8180
F700
7E00
ENDCHAR
STARTCHAR dieresis
ENCODING 168
SWIDTH 164 0
DWIDTH 6 0
BBX 6 1 0 15
BITMAP
CC
ENDCHAR
STARTCHAR copyright
ENCODING 169
SWIDTH 564 0
DWIDTH 20 0
BBX 18 21 1 0
BITMAP
03F000
0E1C00
180600
300300
600180
63E180
673180
C618C0
CC18C0
CC00C0
CC00C0
CC00C0
CC0CC0
C61CC0
E3F980
61E180
700380
380700
1C1E00
0FFC00
03F000
ENDCHAR
STARTCHAR logicalnot
ENCODING 172
SWIDTH 295 0
DWIDTH 11 0
BBX 10 7 0 5
BITMAP
07C0
FFC0
FFC0
00C0
00C0
00C0
00C0
ENDCHAR
STARTCHAR registered
ENCODING 174
SWIDTH 564 0
DWIDTH 20 0
BBX 18 21 1 0
BITMAP
03F000
0E1C00
180600
300300
67E180
67F980
660D80
C60CC0
C60CC0
C678C0
C7F0C0
C638C0
C618C0
C60CC0
E60580
660180
700380
380700
1C1E00
0FFC00
03F000
ENDCHAR
STARTCHAR macron
ENCODING 175
SWIDTH 214 0
DWIDTH 8 0
BBX 7 2 0 15
BITMAP
FE
7E
ENDCHAR
STARTCHAR degree
ENCODING 176
SWIDTH 252 0
DWIDTH 10 0
BBX 8 8 1 13
BITMAP
3C
7E
E7
C3
C3
E7
7E
3C
ENDCHAR
STARTCHAR plusminus
ENCODING 177
SWIDTH 331 0
DWIDTH 12 0
BBX 10 13 1 4
BITMAP
0C00
0C00
0C00
0C00
FFC0
FFC0
0C00
0C00
0C00
0C00
0800
FFC0
FFC0
ENDCHAR
STARTCHAR acute
ENCODING 180
SWIDTH 168 0
DWIDTH 6 0
BBX 6 5 0 14
BITMAP
0C
18
30
60
C0
ENDCHAR
STARTCHAR mu
ENCODING 181
SWIDTH 455 0
DWIDTH 17 0
BBX 13 18 2 -5
BITMAP
C018
C018
C018
C018
C038
E038
E038
E038
E078
F058
D8D8
DF98
CF18
C000
C000
C000
C000
C000
ENDCHAR
STARTCHAR paragraph
ENCODING 182
SWIDTH 433 0
DWIDTH 16 0
BBX 15 22 1 -1
BITMAP
0FFE
3FFE
7318
E318
C318
C318
C318
C318
E318
7318
3F18
1F18
0318
0318
0318
0318
0318
0318
0318
0318
0318
0018
ENDCHAR
STARTCHAR periodcentered
ENCODING 183
SWIDTH 89 0
DWIDTH 3 0
BBX 1 2 1 9
BITMAP
80
80
ENDCHAR
STARTCHAR cedilla
ENCODING 184
SWIDTH 183 0
DWIDTH 7 0
BBX 6 9 0 -7
BITMAP
40
60
60
70
78
0C
0C
F8
20
ENDCHAR
STARTCHAR questiondown
ENCODING 191
SWIDTH 307 0
DWIDTH 12 0
BBX 10 21 1 0
BITMAP
0300
0200
0000
0300
0300
0300
0300
0300
0300
0700
3F00
7000
6000
C000
C000
C000
C000
E000
7000
3FC0
0FC0
ENDCHAR
STARTCHAR Agrave
ENCODING 192
SWIDTH 442 0
DWIDTH 16 0
BBX 16 29 0 -1
BITMAP
0200
0700
0300
0180
00C0
0000
0100
0180
0380
03C0
02C0
06C0
0660
0460
0C60
0C30
0C30
1830
1818
1818
1FF8
3F0C
300C
200C
6006
6006
6006
C002
4003
ENDCHAR
STARTCHAR Aacute
ENCODING 193
SWIDTH 442 0
DWIDTH 16 0
BBX 16 29 0 -1
BITMAP
00C0
01C0
0180
0300
0600
0000
0100
0180
0380
03C0
02C0
06C0
0660
0460
0C60
0C30
0C30
1830
1818
1818
1FF8
3F0C
300C
200C
6006
6006
6006
C002
4003
ENDCHAR
STARTCHAR Acircumflex
ENCODING 194
SWIDTH 442 0
DWIDTH 16 0
BBX 16 29 0 -1
BITMAP
0300
0380
06C0
06C0
0460
0800
0100
0180
0380
03C0
02C0
06C0
0660
0460
0C60
0C30
0C30
1830
1818
1818
1FF8
3F0C
300C
200C
6006
6006
6006
C002
4003
ENDCHAR
STARTCHAR Atilde
ENCODING 195
SWIDTH 442 0
DWIDTH 16 0
BBX 16 28 0 -1
BITMAP
0600
0F60
0DC0
0000
0000
0100
0180
0380
03C0
02C0
06C0
0660
0460
0C60
0C30
0C30
1830
1818
1818
1FF8
3F0C
300C
200C
6006
6006
6006
C002
4003
ENDCHAR
STARTCHAR Adieresis
ENCODING 196
SWIDTH 442 0
DWIDTH 16 0
BBX 16 26 0 -1
BITMAP
04C0
0000
0000
0100
0180
0380
03C0
02C0
06C0
0660
0460
0C60
0C30
0C30
1830
1818
1818
1FF8
3F0C
300C
200C
6006
6006
6006
C002
4003
ENDCHAR
STARTCHAR Aring
ENCODING 197
SWIDTH 442 0
DWIDTH 16 0
BBX 16 29 0 -1
BITMAP
0380
07C0
06C0
06C0
0380
0000
0100
0180
0380
03C0
02C0
06C0
0660
0460
0C60
0C30
0C30
1830
1818
1818
1FF8
3F0C
300C
200C
6006
6006
6006
C002
4003
ENDCHAR
STARTCHAR AE
ENCODING 198
SWIDTH 703 0
DWIDTH 25 0
BBX 24 22 0 0
BITMAP
001FFF
001FFF
003800
003800
007800
005800
00D800
009800
019800
011800
03FFFE
03FFFF
061800
041800
0C1800
081800
181800
301800
301800
601800
601FFF
C01FFF
ENDCHAR
STARTCHAR Ccedilla
ENCODING 199
SWIDTH 427 0
DWIDTH 15 0
BBX 14 28 1 -7
BITMAP
0F80
1FC0
38E0
3060
6030
6020
E000
C000
C000
C000
C000
C000
C000
C000
E000
600C
6018
3038
3870
1FE0
0F80
0300
0300
03C0
0060
0060
03E0
0780
ENDCHAR
STARTCHAR Egrave
ENCODING 200
SWIDTH 445 0
DWIDTH 16 0
BBX 13 28 2 0
BITMAP
0400
0E00
0300
0380
0180
0000
0000
FFF8
FFF8
C000
C000
C000
C000
C000
C000
C000
FFF0
FFF8
C000
C000
C000
C000
C000
C000
C000
C000
FFF8
FFF8
ENDCHAR
STARTCHAR Eacute
ENCODING 201
SWIDTH 445 0
DWIDTH 16 0
BBX 13 28 2 0
BITMAP
0180
0380
0700
0E00
0C00
0000
0000
FFF8
FFF8
C000
C000
C000
C000
C000
C000
C000
FFF0
FFF8
C000
C000
C000
C000
C000
C000
C000
C000
FFF8
FFF8
ENDCHAR
STARTCHAR Ecircumflex
ENCODING 202
SWIDTH 445 0
DWIDTH 16 0
BBX 13 29 2 0
BITMAP
0200
0700
0700
0D80
0CC0
08C0
0000
0000
FFF8
FFF8
C000
C000
C000
C000
C000
C000
C000
FFF0
FFF8
C000
C000
C000
C000
C000
C000
C000
C000
FFF8
FFF8
ENDCHAR
STARTCHAR Edieresis
ENCODING 203
SWIDTH 445 0
DWIDTH 16 0
BBX 13 26 2 0
BITMAP
0980
0D80
0000
0000
0000
FFF8
FFF8
C000
C000
C000
C000
C000
C000
C000
FFF0
FFF8
C000
C000
C000
C000
C000
C000
C000
C000
FFF8
FFF8
ENDCHAR
STARTCHAR Igrave
ENCODING 204
SWIDTH 368 0
DWIDTH 13 0
BBX 12 27 0 0
BITMAP
0C00
0E00
0700
0300
0100
0000
FFF0
FFF0
0600
0600
0600
0600
0600
0600
0600
0600
0600
0600
0600
0600
0600
0600
0600
0600
0600
FFF0
FFF0
ENDCHAR
STARTCHAR Iacute
ENCODING 205
SWIDTH 368 0
DWIDTH 13 0
BBX 12 28 0 0
BITMAP
0080
0180
0300
0600
0C00
0800
0000
FFF0
FFF0
0600
0600
0600
0600
0600
0600
0600
0600
0600
0600
0600
0600
0600
0600
0600
0600
0600
FFF0
FFF0
ENDCHAR
STARTCHAR Icircumflex
ENCODING 206
SWIDTH 368 0
DWIDTH 13 0
BBX 12 28 0 0
BITMAP
0600
0600
0F00
0980
1980
1080
0000
FFF0
FFF0
0600
0600
0600
0600
0600
0600
0600
0600
0600
0600
0600
0600
0600
0600
0600
0600
0600
FFF0
FFF0
ENDCHAR
STARTCHAR Idieresis
ENCODING 207
SWIDTH 368 0
DWIDTH 13 0
BBX 12 25 0 0
BITMAP
1980
0980
0000
0000
FFF0
FFF0
0600
0600
0600
0600
0600
0600
0600
0600
0600
0600
0600
0600
0600
0600
0600
0600
0600
FFF0
FFF0
ENDCHAR
STARTCHAR Eth
ENCODING 208
SWIDTH 502 0
DWIDTH 18 0
BBX 17 22 0 0
BITMAP
3F0000
3FE000
30F000
303C00
300E00
300600
300300
300300
300180
300180
FFC180
7F8180
300180
300180
300300
300300
300600
300E00
303C00
31F000
3FC000
3E0000
ENDCHAR
STARTCHAR Ntilde
ENCODING 209
SWIDTH 475 0
DWIDTH 18 0
BBX 14 27 2 0
BITMAP
0C00
1EC0
1B80
0000
0000
0008
C00C
E00C
E00C
F00C
F80C
D80C
CC0C
CC0C
C60C
C70C
C30C
C18C
C18C
C0CC
C0EC
C06C
C03C
C03C
C01C
C01C
C00C
ENDCHAR
STARTCHAR Ograve
ENCODING 210
SWIDTH 517 0
DWIDTH 19 0
BBX 17 27 1 0
BITMAP
030000
018000
01C000
00C000
006000
000000
07F000
0E3800
180C00
300600
600300
600300
400100
C00180
C00180
C00180
C00180
C00180
C00180
C00180
E00300
600300
700700
380E00
1C1C00
0FF800
07E000
ENDCHAR
STARTCHAR Oacute
ENCODING 211
SWIDTH 517 0
DWIDTH 19 0
BBX 17 28 1 0
BITMAP
006000
006000
00C000
018000
030000
020000
000000
07F000
0E3800
180C00
300600
600300
600300
400100
C00180
C00180
C00180
C00180
C00180
C00180
C00180
E00300
600300
700700
380E00
1C1C00
0FF800
07E000
ENDCHAR
STARTCHAR Ocircumflex
ENCODING 212
SWIDTH 517 0
DWIDTH 19 0
BBX 17 28 1 0
BITMAP
018000
01C000
014000
036000
022000
063000
000000
07F000
0E3800
180C00
300600
600300
600300
400100
C00180
C00180
C00180
C00180
C00180
C00180
C00180
E00300
600300
700700
380E00
1C1C00
0FF800
07E000
ENDCHAR
STARTCHAR Otilde
ENCODING 213
SWIDTH 517 0
DWIDTH 19 0
BBX 17 26 1 0
BITMAP
030000
07B000
04E000
000000
000000
07F000
0E3800
180C00
300600
600300
600300
400100
C00180
C00180
C00180
C00180
C00180
C00180
C00180
E00300
600300
700700
380E00
1C1C00
0FF800
07E000
ENDCHAR
STARTCHAR Odieresis
ENCODING 214
SWIDTH 517 0
DWIDTH 19 0
BBX 17 25 1 0
BITMAP
064000
026000
000000
000000
07F000
0E3800
180C00
300600
600300
600300
400100
C00180
C00180
C00180
C00180
C00180
C00180
C00180
E00300
600300
700700
380E00
1C1C00
0FF800
07E000
ENDCHAR
STARTCHAR multiply
ENCODING 215
SWIDTH 272 0
DWIDTH 10 0
BBX 8 9 1 4
BITMAP
C3
E6
7E
3C
38
3C
66
C3
81
ENDCHAR
STARTCHAR Oslash
ENCODING 216
SWIDTH 517 0
DWIDTH 19 0
BBX 17 22 1 -1
BITMAP
03F000
0FF800
183C00
307600
606300
606300
606300
C0C180
C0C180
C0C180
C18180
C18180
C18180
C18180
E30380
630300
630700
360E00
3E1C00
1FF800
07F000
0C0000
ENDCHAR
STARTCHAR Ugrave
ENCODING 217
SWIDTH 496 0
DWIDTH 18 0
BBX 16 27 1 0
BITMAP
0300
0300
0180
00C0
0040
C003
C003
C003
C003
C003
C003
C003
C003
C003
C003
C003
C003
C003
C003
C003
E006
6006
6006
300C
3C3C
1FF8
07E0
ENDCHAR
STARTCHAR Uacute
ENCODING 218
SWIDTH 496 0
DWIDTH 18 0
BBX 16 28 1 0
BITMAP
0040
00E0
01C0
0380
0700
0600
C003
C003
C003
C003
C003
C003
C003
C003
C003
C003
C003
C003
C003
C003
C003
E006
6006
6006
300C
3C3C
1FF8
07E0
ENDCHAR
STARTCHAR Ucircumflex
ENCODING 219
SWIDTH 496 0
DWIDTH 18 0
BBX 16 28 1 0
BITMAP
0180
0380
03C0
0240
0660
0420
C003
C003
C003
C003
C003
C003
C003
C003
C003
C003
C003
C003
C003
C003
C003
E006
6006
6006
300C
3C3C
1FF8
07E0
ENDCHAR
STARTCHAR Udieresis
ENCODING 220
SWIDTH 496 0
DWIDTH 18 0
BBX 16 25 1 0
BITMAP
06C0
0440
0000
C003
C003
C003
C003
C003
C003
C003
C003
C003
C003
C003
C003
C003
C003
C003
E006
6006
6006
300C
3C3C
1FF8
07E0
ENDCHAR
STARTCHAR Yacute
ENCODING 221
SWIDTH 386 0
DWIDTH 14 0
BBX 14 28 0 0
BITMAP
0080
01C0
0300
0600
0C00
0000
0000
C00C
6018
6018
3030
3030
1860
1860
0CC0
0CC0
0780
0780
0300
0300
0300
0300
0300
0300
0300
0300
0300
0300
ENDCHAR
STARTCHAR Thorn
ENCODING 222
SWIDTH 442 0
DWIDTH 16 0
BBX 13 21 2 0
BITMAP
C000
C000
C000
C000
FF80
FFE0
C070
C038
C018
C018
C018
C018
C038
C070
FFE0
FF80
C000
C000
C000
C000
C000
ENDCHAR
STARTCHAR germandbls
ENCODING 223
SWIDTH 500 0
DWIDTH 18 0
BBX 16 23 1 -1
BITMAP
0300
1FC0
3860
3030
6030
6030
C030
C060
C0C0
C380
C300
C600
C600
C700
C3F0
C07C
C00F
C003
C003
C807
DE3E
CFF8
C180
ENDCHAR
STARTCHAR agrave
ENCODING 224
SWIDTH 366 0
DWIDTH 13 0
BBX 10 19 1 0
BITMAP
1000
3800
1800
0C00
0600
0080
00C0
1EC0
3FC0
61C0
C0C0
C0C0
C0C0
C0C0
C0C0
61C0
7FC0
1EC0
00C0
ENDCHAR
STARTCHAR aacute
ENCODING 225
SWIDTH 366 0
DWIDTH 13 0
BBX 10 19 1 0
BITMAP
0200
0700
0C00
1800
3000
0080
00C0
1EC0
3FC0
61C0
C0C0
C0C0
C0C0
C0C0
C0C0
61C0
7FC0
1EC0
00C0
ENDCHAR
STARTCHAR acircumflex
ENCODING 226
SWIDTH 366 0
DWIDTH 13 0
BBX 10 19 1 0
BITMAP
0800
1C00
1600
3600
2300
0080
00C0
1EC0
3FC0
61C0
C0C0
C0C0
C0C0
C0C0
C0C0
61C0
7FC0
1EC0
00C0
ENDCHAR
STARTCHAR atilde
ENCODING 227
SWIDTH 366 0
DWIDTH 13 0
BBX 10 18 1 0
BITMAP
3000
3B00
6F00
0600
0080
00C0
1EC0
3FC0
61C0
C0C0
C0C0
C0C0
C0C0
C0C0
61C0
7FC0
3EC0
00C0
ENDCHAR
STARTCHAR adieresis
ENCODING 228
SWIDTH 366 0
DWIDTH 13 0
BBX 10 16 1 0
BITMAP
3300
0000
0080
00C0
1EC0
3FC0
61C0
C0C0
C0C0
C0C0
C0C0
C0C0
61C0
7FC0
1EC0
00C0
ENDCHAR
STARTCHAR aring
ENCODING 229
SWIDTH 366 0
DWIDTH 13 0
BBX 10 19 1 0
BITMAP
1E00
1E00
1300
3200
1E00
0080
00C0
1EC0
3FC0
61C0
C0C0
C0C0
C0C0
C0C0
C0C0
61C0
7FC0
3EC0
00C0
ENDCHAR
STARTCHAR ae
ENCODING 230
SWIDTH 617 0
DWIDTH 22 0
BBX 20 14 1 0
BITMAP
00C000
00DF80
1EF0C0
7FE060
61C020
C0C1F0
C0FFE0
C0FE00
C0C000
C0C020
61E070
7FF0E0
1EFFC0
00CF00
ENDCHAR
STARTCHAR ccedilla
ENCODING 231
SWIDTH 369 0
DWIDTH 13 0
BBX 12 19 1 -6
BITMAP
1F00
3F80
6180
60C0
C000
C000
C000
C000
C000
6030
70E0
3FC0
1F00
0400
0700
07C0
00C0
00C0
0F80
ENDCHAR
STARTCHAR egrave
ENCODING 232
SWIDTH 387 0
DWIDTH 14 0
BBX 12 20 1 0
BITMAP
1800
0C00
0E00
0600
0300
0000
0000
1F80
30C0
6060
C020
C1F0
FFE0
FE00
C000
C030
6070
70E0
3FC0
0F00
ENDCHAR
STARTCHAR eacute
ENCODING 233
SWIDTH 387 0
DWIDTH 14 0
BBX 12 20 1 0
BITMAP
0300
0600
0C00
1800
3000
0000
0000
1F80
30C0
6060
C020
C1F0
FFE0
FE00
C000
C030
6070
70E0
3FC0
0F00
ENDCHAR
STARTCHAR ecircumflex
ENCODING 234
SWIDTH 387 0
DWIDTH 14 0
BBX 12 21 1 0
BITMAP
0400
0C00
0E00
1B00
1300
3180
0000
0000
1F80
30C0
6060
C020
C1F0
FFE0
FE00
C000
C030
6070
70E0
3FC0
0F00
ENDCHAR
STARTCHAR edieresis
ENCODING 235
SWIDTH 387 0
DWIDTH 14 0
BBX 12 17 1 0
BITMAP
1300
1300
0000
0000
1F80
30C0
6060
C020
C1F0
FFE0
FE00
C000
C030
6070
70E0
3FC0
0F00
ENDCHAR
STARTCHAR igrave
ENCODING 236
SWIDTH 175 0
DWIDTH 6 0
BBX 4 20 1 -1
BITMAP
80
C0
60
30
30
00
60
60
60
60
60
60
60
60
60
60
60
60
60
40
ENDCHAR
STARTCHAR iacute
ENCODING 237
SWIDTH 175 0
DWIDTH 6 0
BBX 6 20 0 -1
BITMAP
0C
18
30
70
E0
00
30
30
30
30
30
30
30
30
30
30
30
30
30
20
ENDCHAR
STARTCHAR icircumflex
ENCODING 238
SWIDTH 175 0
DWIDTH 6 0
BBX 6 20 0 -1
BITMAP
30
70
78
CC
CC
00
30
30
30
30
30
30
30
30
30
30
30
30
30
20
ENDCHAR
STARTCHAR idieresis
ENCODING 239
SWIDTH 175 0
DWIDTH 6 0
BBX 5 17 0 -1
BITMAP
C8
00
00
30
30
30
30
30
30
30
30
30
30
30
30
30
20
ENDCHAR
STARTCHAR eth
ENCODING 240
SWIDTH 329 0
DWIDTH 12 0
BBX 10 21 1 0
BITMAP
1000
1800
0C00
0C00
0600
0600
02C0
07C0
0F00
0100
0180
0780
3F80
7080
6080
C080
C080
C080
E180
7F00
3E00
ENDCHAR
STARTCHAR ntilde
ENCODING 241
SWIDTH 399 0
DWIDTH 14 0
BBX 11 18 2 0
BITMAP
1800
3D80
3700
0000
C000
CF00
FF80
F1C0
E0C0
C0C0
C060
C060
C060
C060
C060
C060
C060
C060
ENDCHAR
STARTCHAR ograve
ENCODING 242
SWIDTH 368 0
DWIDTH 13 0
BBX 11 18 1 0
BITMAP
1800
0C00
0600
0300
0300
0000
1F00
3F80
71C0
E0E0
C060
C060
C060
C060
E0E0
71C0
3F80
1F00
ENDCHAR
STARTCHAR oacute
ENCODING 243
SWIDTH 368 0
DWIDTH 13 0
BBX 11 19 1 0
BITMAP
0200
0600
0C00
1800
3000
2000
0000
1F00
3F80
71C0
E0E0
C060
C060
C060
C060
E0E0
71C0
3F80
1F00
ENDCHAR
STARTCHAR ocircumflex
ENCODING 244
SWIDTH 368 0
DWIDTH 13 0
BBX 11 19 1 0
BITMAP
0C00
0E00
0E00
1B00
1100
3180
0000
1F00
3F80
71C0
E0E0
C060
C060
C060
C060
E0E0
71C0
3F80
1F00
ENDCHAR
STARTCHAR otilde
ENCODING 245
SWIDTH 368 0
DWIDTH 13 0
BBX 11 18 1 0
BITMAP
1800
3D80
3700
0000
0000
0000
1F00
3F80
71C0
E0E0
C060
C060
C060
C060
E0E0
71C0
3F80
1F00
ENDCHAR
STARTCHAR odieresis
ENCODING 246
SWIDTH 368 0
DWIDTH 13 0
BBX 11 16 1 0
BITMAP
1300
1B00
0000
0000
1F00
3F80
71C0
E0E0
C060
C060
C060
C060
E0E0
71C0
3F80
1F00
ENDCHAR
STARTCHAR divide
ENCODING 247
SWIDTH 311 0
DWIDTH 11 0
BBX 11 8 0 5
BITMAP
0400
0400
0000
7FE0
FFE0
0000
0400
0400
ENDCHAR
STARTCHAR oslash
ENCODING 248
SWIDTH 367 0
DWIDTH 13 0
BBX 11 17 1 -3
BITMAP
0180
0300
1F00
3F80
73C0
E2E0
C660
C660
C460
CC60
ECE0
7DC0
3F80
1F00
1800
1800
1000
ENDCHAR
STARTCHAR ugrave
ENCODING 249
SWIDTH 390 0
DWIDTH 14 0
BBX 11 19 1 0
BITMAP
0800
1C00
0C00
0600
0300
0000
C060
C060
C060
C060
C060
C060
C060
C0E0
60E0
60E0
71E0
3F60
1E60
ENDCHAR
STARTCHAR uacute
ENCODING 250
SWIDTH 390 0
DWIDTH 14 0
BBX 11 19 1 0
BITMAP
0180
0300
0600
0C00
1800
0000
C060
C060
C060
C060
C060
C060
C060
C0E0
60E0
60E0
71E0
3F60
1E60
ENDCHAR
STARTCHAR ucircumflex
ENCODING 251
SWIDTH 390 0
DWIDTH 14 0
BBX 11 19 1 0
BITMAP
0C00
0E00
1E00
1300
3100
0000
C060
C060
C060
C060
C060
C060
C060
C0E0
60E0
60E0
71E0
3F60
1E60
ENDCHAR
STARTCHAR udieresis
ENCODING 252
SWIDTH 390 0
DWIDTH 14 0
BBX 11 16 1 0
BITMAP
1B00
0000
0000
C060
C060
C060
C060
C060
C060
C060
C0E0
60E0
60E0
71E0
3F60
1E60
ENDCHAR
STARTCHAR yacute
ENCODING 253
SWIDTH 337 0
DWIDTH 12 0
BBX 10 28 1 -8
BITMAP
0200
0700
0E00
1C00
1800
3000
0000
0040
C040
C0C0
40C0
6080
6180
3180
3100
1B00
1B00
0F00
0E00
0600
0600
0C00
0C00
0C00
1800
1800
1800
1000
ENDCHAR
STARTCHAR thorn
ENCODING 254
SWIDTH 348 0
DWIDTH 13 0
BBX 10 27 2 -5
BITMAP
4000
C000
C000
C000
C000
C000
C000
C000
C000
C000
5F00
7F80
61C0
60C0
40C0
40C0
40C0
40C0
6180
7F80
5F00
4000
4000
4000
4000
4000
4000
ENDCHAR
STARTCHAR ydieresis
ENCODING 255
SWIDTH 337 0
DWIDTH 12 0
BBX 10 25 1 -8
BITMAP
1300
1300
0000
0000
0040
C040
C0C0
40C0
6080
6180
3180
3100
1B00
1B00
0F00
0E00
0600
0600
0C00
0C00
0C00
1800
1800
1800
1000
ENDCHAR
STARTCHAR Amacron
ENCODING 256
SWIDTH 442 0
DWIDTH 16 0
BBX 16 27 0 -1
BITMAP
0FE0
0FE0
0000
0000
0100
0180
0380
03C0
02C0
06C0
0660
0460
0C60
0C30
0C30
1830
1818
1818
1FF8
3F0C
300C
200C
6006
6006
6006
C002
4003
ENDCHAR
STARTCHAR amacron
ENCODING 257
SWIDTH 366 0
DWIDTH 13 0
BBX 10 17 1 0
BITMAP
7F00
7F00
0000
0080
00C0
1EC0
3FC0
61C0
C0C0
C0C0
C0C0
C0C0
C0C0
61C0
7FC0
3EC0
00C0
ENDCHAR
STARTCHAR Abreve
ENCODING 258
SWIDTH 442 0
DWIDTH 16 0
BBX 16 28 0 -1
BITMAP
0C60
0C60
06C0
0780
0000
0100
0180
0380
03C0
02C0
06C0
0660
0460
0C60
0C30
0C30
1830
1818
1818
1FF8
3F0C
300C
200C
6006
6006
6006
C002
4003
ENDCHAR
STARTCHAR abreve
ENCODING 259
SWIDTH 366 0
DWIDTH 13 0
BBX 10 18 1 0
BITMAP
2300
6300
3300
1E00
0080
00C0
1EC0
3FC0
61C0
C0C0
C0C0
C0C0
C0C0
C0C0
61C0
7FC0
1EC0
00C0
ENDCHAR
STARTCHAR Aogonek
ENCODING 260
SWIDTH 442 0
DWIDTH 16 0
BBX 17 27 0 -5
BITMAP
010000
018000
038000
03C000
02C000
06C000
066000
046000
0C6000
0C3000
0C3000
183000
181800
181800
1FF800
3F0C00
300C00
200C00
600600
600600
600600
C00600
400F00
000C00
001800
001F80
000700
ENDCHAR
STARTCHAR aogonek
ENCODING 261
SWIDTH 366 0
DWIDTH 13 0
BBX 11 19 1 -5
BITMAP
00C0
00C0
1EC0
3FC0
61C0
C0C0
C0C0
C0C0
C0C0
C0C0
61C0
7FC0
1EC0
00C0
01C0
0380
0300
0300
03E0
ENDCHAR
STARTCHAR Cacute
ENCODING 262
SWIDTH 427 0
DWIDTH 15 0
BBX 14 28 1 0
BITMAP
0080
0180
0300
0600
0C00
0800
0000
0F80
1DC0
3060
7060
6030
6020
C000
C000
C000
C000
C000
C000
C000
C000
6008
600C
6018
3038
3870
1FE0
0780
ENDCHAR
STARTCHAR cacute
ENCODING 263
SWIDTH 369 0
DWIDTH 13 0
BBX 12 20 1 0
BITMAP
0600
0600
0C00
1800
3000
2000
0000
1F00
3380
60C0
C0C0
C000
C000
C000
C000
E020
6070
70E0
3FC0
0F00
ENDCHAR
STARTCHAR Ccircumflex
ENCODING 264
SWIDTH 427 0
DWIDTH 15 0
BBX 14 28 1 0
BITMAP
0600
0700
0F00
0D80
1980
1080
0000
0F80
1DC0
3060
7060
6030
6020
C000
C000
C000
C000
C000
C000
C000
C000
6008
600C
6018
3038
3870
1FE0
0780
ENDCHAR
STARTCHAR ccircumflex
ENCODING 265
SWIDTH 369 0
DWIDTH 13 0
BBX 12 20 1 0
BITMAP
0C00
1C00
1E00
1300
3300
0000
0000
1F00
3380
60C0
C0C0
C000
C000
C000
C000
E020
6070
70E0
3FC0
0F00
ENDCHAR
STARTCHAR Cdotaccent
ENCODING 266
SWIDTH 427 0
DWIDTH 15 0
BBX 14 25 1 0
BITMAP
0600
0200
0000
0000
0F80
1DC0
3060
7060
6030
6020
C000
C000
C000
C000
C000
C000
C000
C000
6008
600C
6018
3038
3870
1FE0
0780
ENDCHAR
STARTCHAR cdotaccent
ENCODING 267
SWIDTH 369 0
DWIDTH 13 0
BBX 12 16 1 0
BITMAP
0C00
0000
0000
1F00
3380
60C0
C0C0
C000
C000
C000
C000
E020
6070
70E0
3FC0
0F00
ENDCHAR
STARTCHAR Ccaron
ENCODING 268
SWIDTH 427 0
DWIDTH 15 0
BBX 14 28 1 0
BITMAP
0880
0CC0
0D80
0500
0700
0200
0000
0F80
1DC0
3060
7060
6030
6020
C000
C000
C000
C000
C000
C000
C000
C000
6008
600C
6018
3038
3870
1FE0
0780
ENDCHAR
STARTCHAR ccaron
ENCODING 269
SWIDTH 369 0
DWIDTH 13 0
BBX 12 20 1 0
BITMAP
3100
3300
1600
1E00
0C00
0000
0000
1F00
3380
60C0
C0C0
C000
C000
C000
C000
E020
6070
70E0
3FC0
0F00
ENDCHAR
STARTCHAR Dcaron
ENCODING 270
SWIDTH 492 0
DWIDTH 18 0
BBX 15 28 2 0
BITMAP
6200
3600
3400
1C00
1800
0000
FC00
FF80
C3C0
C0F0
C038
C018
C00C
C00C
C006
C006
C006
C006
C006
C006
C00C
C00C
C018
C038
C0F0
C7C0
FF00
F800
ENDCHAR
STARTCHAR dcaron
ENCODING 271
SWIDTH 517 0
DWIDTH 19 0
BBX 17 21 1 0
BITMAP
003000
003000
003300
003180
003180
003180
003180
003180
0F3180
3FF300
70F000
607000
C03000
C03000
C03000
C03000
403000
607000
39F000
1FB000
003000
ENDCHAR
STARTCHAR Dcroat
ENCODING 272
SWIDTH 502 0
DWIDTH 18 0
BBX 17 22 0 0
BITMAP
3F0000
3FE000
30F000
303C00
300E00
300600
300300
300300
300180
300180
FFC180
7F8180
300180
300180
300300
300300
300600
300E00
303C00
31F000
3FC000
3E0000
ENDCHAR
STARTCHAR dcroat
ENCODING 273
SWIDTH 436 0
DWIDTH 16 0
BBX 15 21 1 0
BITMAP
0030
0030
0030
0030
00FC
01FE
0030
0030
0630
3FB0
70F0
6070
C030
C030
C030
C030
C030
6070
79F0
3FB0
0630
ENDCHAR
STARTCHAR Emacron
ENCODING 274
SWIDTH 445 0
DWIDTH 16 0
BBX 13 26 2 0
BITMAP
1FC0
1FC0
0000
0000
0000
FFF8
FFF8
C000
C000
C000
C000
C000
C000
C000
FFF0
FFF8
C000
C000
C000
C000
C000
C000
C000
C000
FFF8
FFF8
ENDCHAR
STARTCHAR emacron
ENCODING 275
SWIDTH 387 0
DWIDTH 14 0
BBX 12 17 1 0
BITMAP
3F80
3F80
0000
0000
1F80
30C0
6060
C020
C1F0
FFE0
FE00
C000
C030
6070
70E0
3FC0
0F00
ENDCHAR
STARTCHAR Ebreve
ENCODING 276
SWIDTH 445 0
DWIDTH 16 0
BBX 13 28 2 0
BITMAP
00C0
18C0
08C0
0F80
0700
0000
0000
FFF8
FFF8
C000
C000
C000
C000
C000
C000
C000
FFF0
FFF8
C000
C000
C000
C000
C000
C000
C000
C000
FFF8
FFF8
ENDCHAR
STARTCHAR ebreve
ENCODING 277
SWIDTH 387 0
DWIDTH 14 0
BBX 12 19 1 0
BITMAP
2100
3300
3300
1E00
0800
0000
1F80
30C0
6060
C020
C1F0
FFE0
FE00
C000
C030
6070
70E0
3FC0
0F00
ENDCHAR
STARTCHAR Edotaccent
ENCODING 278
SWIDTH 445 0
DWIDTH 16 0
BBX 13 26 2 0
BITMAP
0200
0300
0000
0000
0000
FFF8
FFF8
C000
C000
C000
C000
C000
C000
C000
FFF0
FFF8
C000
C000
C000
C000
C000
C000
C000
C000
FFF8
FFF8
ENDCHAR
STARTCHAR edotaccent
ENCODING 279
SWIDTH 387 0
DWIDTH 14 0
BBX 12 17 1 0
BITMAP
0400
0400
0000
0000
1F80
30C0
6060
C020
C1F0
FFE0
FE00
C000
C030
6070
70E0
3FC0
0F00
ENDCHAR
STARTCHAR Eogonek
ENCODING 280
SWIDTH 445 0
DWIDTH 16 0
BBX 13 25 2 -4
BITMAP
FFF8
FFF8
C000
C000
C000
C000
C000
C000
C000
FFF0
FFF8
C000
C000
C000
C000
C000
C000
C000
C000
FFF8
FFF8
0600
0400
0E80
07C0
ENDCHAR
STARTCHAR eogonek
ENCODING 281
SWIDTH 387 0
DWIDTH 14 0
BBX 12 17 1 -4
BITMAP
1F80
30C0
6060
C020
C1F0
FFE0
FE00
C000
C030
6070
70E0
3FC0
1F00
0600
0400
07C0
0380
ENDCHAR
STARTCHAR Ecaron
ENCODING 282
SWIDTH 445 0
DWIDTH 16 0
BBX 13 29 2 0
BITMAP
0800
08C0
0D80
0580
0700
0200
0000
0000
FFF8
FFF8
C000
C000
C000
C000
C000
C000
C000
FFF0
FFF8
C000
C000
C000
C000
C000
C000
C000
C000
FFF8
FFF8
ENDCHAR
STARTCHAR ecaron
ENCODING 283
SWIDTH 387 0
DWIDTH 14 0
BBX 12 20 1 0
BITMAP
3100
1300
1B00
0E00
0C00
0000
0000
1F80
30C0
6060
C020
C1F0
FFE0
FE00
C000
C030
6070
70E0
3FC0
0F00
ENDCHAR
STARTCHAR Gcircumflex
ENCODING 284
SWIDTH 488 0
DWIDTH 18 0
BBX 16 28 1 0
BITMAP
0180
0380
02C0
0660
0660
0000
07C0
0FF0
1C38
301C
700C
6004
6000
C000
C000
C000
C1FF
C1FF
C003
C003
6003
6006
6006
300E
380C
1C38
0FF0
07E0
ENDCHAR
STARTCHAR gcircumflex
ENCODING 285
SWIDTH 395 0
DWIDTH 14 0
BBX 11 27 1 -8
BITMAP
0C00
0E00
1E00
1300
3300
2100
0060
1F60
3FE0
71E0
E0E0
C060
C060
C060
C060
E0E0
71E0
3FE0
1F60
0060
0060
0060
0060
20C0
31C0
3F80
0F00
ENDCHAR
STARTCHAR Gbreve
ENCODING 286
SWIDTH 488 0
DWIDTH 18 0
BBX 16 27 1 0
BITMAP
0C60
0C60
06C0
03C0
0000
07C0
0FF0
1C38
301C
700C
6004
6000
C000
C000
C000
C1FF
C1FF
C003
C003
6003
6006
6006
300E
380C
1C38
0FF0
07E0
ENDCHAR
STARTCHAR gbreve
ENCODING 287
SWIDTH 395 0
DWIDTH 14 0
BBX 11 26 1 -8
BITMAP
2180
3180
1980
1F00
0600
0060
1F60
3FE0
71E0
E0E0
C060
C060
C060
C060
E0E0
71E0
3FE0
1F60
0060
0060
0060
0060
40C0
71C0
3F80
1F00
ENDCHAR
STARTCHAR Gdotaccent
ENCODING 288
SWIDTH 488 0
DWIDTH 18 0
BBX 16 25 1 0
BITMAP
0180
0100
0000
07C0
0FF0
1C38
301C
700C
6004
6000
C000
C000
C000
C1FF
C1FF
C003
C003
6003
6006
6006
300E
380C
1C38
0FF0
07E0
ENDCHAR
STARTCHAR gdotaccent
ENCODING 289
SWIDTH 395 0
DWIDTH 14 0
BBX 11 24 1 -8
BITMAP
0400
0600
0000
0060
1F60
3FE0
71E0
E0E0
C060
C060
C060
C060
E0E0
71E0
3FE0
1F60
0060
0060
0060
0060
20C0
31C0
3F80
0F00
ENDCHAR
STARTCHAR Gcommaaccent
ENCODING 290
SWIDTH 488 0
DWIDTH 18 0
BBX 16 30 1 -8
BITMAP
07C0
0FF0
1C38
301C
700C
6004
6000
C000
C000
C000
C1FF
C1FF
C003
C003
6003
6006
6006
300E
380C
1C38
0FF0
07E0
0000
0000
0180
0080
0080
00C0
0180
0100
ENDCHAR
STARTCHAR gcommaaccent
ENCODING 291
SWIDTH 395 0
DWIDTH 14 0
BBX 11 27 1 -8
BITMAP
0600
0C00
0800
0C00
0C00
0400
0060
1F60
3FE0
71E0
E0E0
C060
C060
C060
C060
E0E0
71E0
3FE0
1F60
0060
0060
0060
0060
20C0
31C0
3F80
0F00
ENDCHAR
STARTCHAR Hcircumflex
ENCODING 292
SWIDTH 502 0
DWIDTH 18 0
BBX 14 28 2 0
BITMAP
0300
0300
0780
0480
0CC0
0840
8008
C00C
C00C
C00C
C00C
C00C
C00C
C00C
C00C
C00C
FFFC
FFFC
C00C
C00C
C00C
C00C
C00C
C00C
C00C
C00C
C00C
C00C
ENDCHAR
STARTCHAR hcircumflex
ENCODING 293
SWIDTH 408 0
DWIDTH 14 0
BBX 11 22 2 -1
BITMAP
C000
C000
C600
CE00
CB00
D980
D980
C000
C000
CF00
DF80
F1C0
E0C0
E060
C060
C060
C060
C060
C060
C060
C060
C000
ENDCHAR
STARTCHAR Hbar
ENCODING 294
SWIDTH 519 0
DWIDTH 19 0
BBX 19 21 0 0
BITMAP
300180
300180
300180
300180
300180
FFFFE0
FFFFE0
300180
300180
3FFF80
3FFF80
300180
300180
300180
300180
300180
300180
300180
300180
300180
300180
ENDCHAR
STARTCHAR hbar
ENCODING 295
SWIDTH 418 0
DWIDTH 15 0
BBX 14 22 0 -1
BITMAP
3000
3000
3000
3000
3000
FE00
FE00
3000
3000
33E0
3FF0
3C38
3818
3808
300C
300C
300C
300C
300C
300C
300C
2000
ENDCHAR
STARTCHAR Itilde
ENCODING 296
SWIDTH 368 0
DWIDTH 13 0
BBX 12 26 0 0
BITMAP
0C00
0EC0
1B80
0000
0000
FFF0
FFF0
0600
0600
0600
0600
0600
0600
0600
0600
0600
0600
0600
0600
0600
0600
0600
0600
0600
FFF0
FFF0
ENDCHAR
STARTCHAR itilde
ENCODING 297
SWIDTH 175 0
DWIDTH 6 0
BBX 7 19 0 -1
BITMAP
60
F6
9C
00
00
30
30
30
30
30
30
30
30
30
30
30
30
30
20
ENDCHAR
STARTCHAR Imacron
ENCODING 298
SWIDTH 368 0
DWIDTH 13 0
BBX 12 26 0 0
BITMAP
1FC0
1FC0
0000
0000
0000
FFF0
FFF0
0600
0600
0600
0600
0600
0600
0600
0600
0600
0600
0600
0600
0600
0600
0600
0600
0600
FFF0
FFF0
ENDCHAR
STARTCHAR imacron
ENCODING 299
SWIDTH 175 0
DWIDTH 6 0
BBX 7 18 0 -1
BITMAP
FE
FC
00
00
30
30
30
30
30
30
30
30
30
30
30
30
30
20
ENDCHAR
STARTCHAR Ibreve
ENCODING 300
SWIDTH 368 0
DWIDTH 13 0
BBX 11 27 1 0
BITMAP
2180
3180
1180
1F00
0400
0000
FFE0
FFE0
0400
0400
0400
0400
0400
0400
0400
0400
0400
0400
0400
0400
0400
0400
0400
0400
0400
FFE0
FFE0
ENDCHAR
STARTCHAR ibreve
ENCODING 301
SWIDTH 175 0
DWIDTH 7 0
BBX 7 19 -1 -1
BITMAP
46
C6
6E
3C
00
18
18
18
18
18
18
18
18
18
18
18
18
18
10
ENDCHAR
STARTCHAR Iogonek
ENCODING 302
SWIDTH 368 0
DWIDTH 13 0
BBX 12 25 0 -4
BITMAP
FFF0
FFF0
0600
0600
0600
0600
0600
0600
0600
0600
0600
0600
0600
0600
0600
0600
0600
0600
0600
FFF0
FFF0
0E00
0800
1D80
0F80
ENDCHAR
STARTCHAR iogonek
ENCODING 303
SWIDTH 175 0
DWIDTH 6 0
BBX 5 22 0 -5
BITMAP
30
30
00
00
30
30
30
30
30
30
30
30
30
30
30
30
30
60
C0
80
F8
70
ENDCHAR
STARTCHAR Idotaccent
ENCODING 304
SWIDTH 368 0
DWIDTH 13 0
BBX 12 25 0 0
BITMAP
0600
0600
0000
0000
FFF0
FFF0
0600
0600
0600
0600
0600
0600
0600
0600
0600
0600
0600
0600
0600
0600
0600
0600
0600
FFF0
FFF0
ENDCHAR
STARTCHAR dotlessi
ENCODING 305
SWIDTH 175 0
DWIDTH 6 0
BBX 2 14 2 -1
BITMAP
C0
C0
C0
C0
C0
C0
C0
C0
C0
C0
C0
C0
C0
80
ENDCHAR
STARTCHAR IJ
ENCODING 306
SWIDTH 767 0
DWIDTH 28 0
BBX 25 22 1 0
BITMAP
00000180
FFF00180
FFF00180
06000180
06000180
06000180
06000180
06000180
06000180
06000180
06000180
06000180
06000180
06000180
06000180
06000180
06060180
06060300
06030300
06018600
FFF0FC00
FFF07800
ENDCHAR
STARTCHAR ij
ENCODING 307
SWIDTH 341 0
DWIDTH 12 0
BBX 9 25 1 -8
BITMAP
6180
6180
0000
0080
6180
6180
6180
6180
6180
6180
6180
6180
6180
6180
6180
6180
6180
4180
0180
0180
8180
C180
E300
7E00
3C00
ENDCHAR
STARTCHAR Jcircumflex
ENCODING 308
SWIDTH 395 0
DWIDTH 14 0
BBX 14 28 0 0
BITMAP
0030
0030
0078
0048
00CC
0084
0030
0030
0030
0030
0030
0030
0030
0030
0030
0030
0030
0030
0030
0030
0030
0030
C030
C060
6060
30C0
1F80
0F00
ENDCHAR
STARTCHAR jcircumflex
ENCODING 309
SWIDTH 166 0
DWIDTH 6 0
BBX 11 27 -5 -8
BITMAP
0180
0380
02C0
0640
0460
0180
0180
0180
0180
0180
0180
0180
0180
0180
0180
0180
0180
0180
0180
0180
0180
0180
8180
C300
E300
7E00
3C00
ENDCHAR
STARTCHAR Kcommaaccent
ENCODING 310
SWIDTH 440 0
DWIDTH 16 0
BBX 14 28 2 -7
BITMAP
C060
C0E0
C1C0
C380
C700
C600
CC00
D800
F000
E000
E000
F000
F800
CC00
C700
C380
C1C0
C060
C038
C01C
C00C
0000
0600
0600
0200
0200
0600
0C00
ENDCHAR
STARTCHAR kcommaaccent
ENCODING 311
SWIDTH 376 0
DWIDTH 14 0
BBX 11 27 2 -6
BITMAP
C000
C000
C000
C000
C000
C000
C000
C000
C100
C380
C700
CC00
D800
F000
E000
F000
FC00
CF00
C380
C0E0
C060
0400
0C00
0600
0600
0600
0C00
ENDCHAR
STARTCHAR kgreenlandic
ENCODING 312
SWIDTH 373 0
DWIDTH 13 0
BBX 11 14 2 0
BITMAP
8000
C100
C380
C700
CC00
F800
F000
E000
F000
FC00
CE00
C380
C1E0
C060
ENDCHAR
STARTCHAR Lacute
ENCODING 313
SWIDTH 388 0
DWIDTH 14 0
BBX 14 28 0 0
BITMAP
0800
1800
3000
7000
E000
C000
2000
3000
3000
3000
3000
3000
3000
3000
3000
3000
3000
3000
3000
3000
3000
3000
3000
3000
3000
3000
3FFC
3FFC
ENDCHAR
STARTCHAR lacute
ENCODING 314
SWIDTH 177 0
DWIDTH 6 0
BBX 5 27 0 0
BITMAP
18
38
70
E0
C0
00
30
30
30
30
30
30
30
30
30
30
30
30
30
30
30
30
30
30
30
30
30
ENDCHAR
STARTCHAR Lcommaaccent
ENCODING 315
SWIDTH 388 0
DWIDTH 14 0
BBX 12 30 2 -8
BITMAP
8000
C000
C000
C000
C000
C000
C000
C000
C000
C000
C000
C000
C000
C000
C000
C000
C000
C000
C000
C000
FFF0
FFF0
0000
0000
0C00
0600
0600
0600
0C00
0800
ENDCHAR
STARTCHAR lcommaaccent
ENCODING 316
SWIDTH 177 0
DWIDTH 6 0
BBX 3 29 2 -8
BITMAP
C0
C0
C0
C0
C0
C0
C0
C0
C0
C0
C0
C0
C0
C0
C0
C0
C0
C0
C0
C0
C0
00
00
C0
60
60
60
C0
80
ENDCHAR
STARTCHAR Lcaron
ENCODING 317
SWIDTH 388 0
DWIDTH 14 0
BBX 14 28 0 0
BITMAP
C400
4C00
6800
3800
3000
0000
2000
3000
3000
3000
3000
3000
3000
3000
3000
3000
3000
3000
3000
3000
3000
3000
3000
3000
3000
3000
3FFC
3FFC
ENDCHAR
STARTCHAR lcaron
ENCODING 318
SWIDTH 278 0
DWIDTH 10 0
BBX 8 21 2 0
BITMAP
C0
C0
C4
C6
C6
C3
C3
C3
C6
C6
C0
C0
C0
C0
C0
C0
C0
C0
C0
C0
C0
ENDCHAR
STARTCHAR Ldot
ENCODING 319
SWIDTH 388 0
DWIDTH 14 0
BBX 12 22 2 0
BITMAP
8000
C000
C000
C000
C000
C000
C000
C000
C000
C000
C000
C200
C200
C000
C000
C000
C000
C000
C000
C000
FFF0
FFF0
ENDCHAR
STARTCHAR ldot
ENCODING 320
SWIDTH 216 0
DWIDTH 8 0
BBX 5 21 2 0
BITMAP
C0
C0
C0
C0
C0
C0
C0
C0
C0
C0
C8
C8
C0
C0
C0
C0
C0
C0
C0
C0
C0
ENDCHAR
STARTCHAR Lslash
ENCODING 321
SWIDTH 423 0
DWIDTH 15 0
BBX 15 22 0 0
BITMAP
1000
1800
1800
1800
1800
1800
1800
1800
1800
1800
1800
1800
1B00
1F00
3C00
F800
5800
1800
1800
1800
1FFE
1FFE
ENDCHAR
STARTCHAR lslash
ENCODING 322
SWIDTH 239 0
DWIDTH 9 0
BBX 8 21 0 0
BITMAP
18
18
18
18
18
18
18
18
18
18
18
1B
1F
3C
78
D8
18
18
18
18
18
ENDCHAR
STARTCHAR Nacute
ENCODING 323
SWIDTH 475 0
DWIDTH 18 0
BBX 14 28 2 0
BITMAP
0180
0300
0700
0E00
0C00
0000
0008
C00C
E00C
E00C
F00C
F80C
D80C
CC0C
CC0C
C60C
C70C
C30C
C18C
C18C
C0CC
C0EC
C06C
C03C
C03C
C01C
C01C
C00C
ENDCHAR
STARTCHAR nacute
ENCODING 324
SWIDTH 399 0
DWIDTH 14 0
BBX 11 20 2 0
BITMAP
0200
0700
0600
0C00
1800
3000
C000
CF00
FF80
F1C0
E0C0
C0C0
C060
C060
C060
C060
C060
C060
C060
C060
ENDCHAR
STARTCHAR Ncommaaccent
ENCODING 325
SWIDTH 475 0
DWIDTH 18 0
BBX 14 30 2 -8
BITMAP
0008
C00C
E00C
E00C
F00C
F80C
D80C
CC0C
CC0C
C60C
C70C
C30C
C18C
C18C
C0CC
C0EC
C06C
C03C
C03C
C01C
C01C
C00C
0000
0000
0600
0300
0300
0300
0600
0600
ENDCHAR
STARTCHAR ncommaaccent
ENCODING 326
SWIDTH 399 0
DWIDTH 14 0
BBX 11 21 2 -7
BITMAP
C000
CF00
FF80
F1C0
E0C0
C0C0
C060
C060
C060
C060
C060
C060
C060
C060
0000
0400
0E00
0600
0600
0600
0C00
ENDCHAR
STARTCHAR Ncaron
ENCODING 327
SWIDTH 475 0
DWIDTH 18 0
BBX 14 28 2 0
BITMAP
0C40
04C0
06C0
0380
0300
0100
0008
C00C
E00C
E00C
F00C
F80C
D80C
CC0C
CC0C
C60C
C70C
C30C
C18C
C18C
C0CC
C0EC
C06C
C03C
C03C
C01C
C01C
C00C
ENDCHAR
STARTCHAR ncaron
ENCODING 328
SWIDTH 399 0
DWIDTH 14 0
BBX 11 19 2 0
BITMAP
3100
3300
1A00
1E00
0C00
C000
CF00
FF80
F1C0
E0C0
C0C0
C060
C060
C060
C060
C060
C060
C060
C060
ENDCHAR
STARTCHAR napostrophe
ENCODING 329
SWIDTH 494 0
DWIDTH 18 0
BBX 17 18 0 0
BITMAP
400000
C00000
600000
600000
660000
667800
67FE00
678600
070300
070300
060180
060180
060180
060180
060180
060180
060180
060180
ENDCHAR
STARTCHAR Eng
ENCODING 330
SWIDTH 477 0
DWIDTH 18 0
BBX 14 30 2 -8
BITMAP
C00C
E00C
E00C
F00C
F00C
D80C
DC0C
CC0C
C60C
C60C
C30C
C38C
C18C
C0CC
C0CC
C06C
C07C
C03C
C01C
C01C
C00C
000C
000C
000C
3008
3018
1818
0C30
0FE0
03C0
ENDCHAR
STARTCHAR eng
ENCODING 331
SWIDTH 401 0
DWIDTH 14 0
BBX 11 22 2 -8
BITMAP
C000
DF00
FF80
F1C0
E0C0
C0E0
C060
C060
C060
C060
C060
C060
C060
C060
0060
0060
0060
2060
30C0
39C0
1F80
0F00
ENDCHAR
STARTCHAR Omacron
ENCODING 332
SWIDTH 517 0
DWIDTH 19 0
BBX 17 26 1 0
BITMAP
07F000
07F000
000000
000000
000000
07F000
0E3800
180C00
300600
600300
600300
400100
C00180
C00180
C00180
C00180
C00180
C00180
C00180
E00300
600300
700700
380E00
1C1C00
0FF800
07E000
ENDCHAR
STARTCHAR omacron
ENCODING 333
SWIDTH 368 0
DWIDTH 13 0
BBX 11 17 1 0
BITMAP
0380
3F80
3F80
0000
0000
1F00
3F80
71C0
E0E0
C060
C060
C060
C060
E0E0
71C0
3F80
1F00
ENDCHAR
STARTCHAR Obreve
ENCODING 334
SWIDTH 517 0
DWIDTH 19 0
BBX 17 27 1 0
BITMAP
063000
063000
023000
03E000
008000
000000
07F000
0E3800
180C00
300600
600300
600300
400100
C00180
C00180
C00180
C00180
C00180
C00180
C00180
E00300
600300
700700
380E00
1C1C00
0FF800
07E000
ENDCHAR
STARTCHAR obreve
ENCODING 335
SWIDTH 368 0
DWIDTH 13 0
BBX 11 18 1 0
BITMAP
2100
3300
3300
1E00
0C00
0000
1F00
3F80
71C0
E0E0
C060
C060
C060
C060
E0E0
71C0
3F80
1F00
ENDCHAR
STARTCHAR Ohungarumlaut
ENCODING 336
SWIDTH 517 0
DWIDTH 19 0
BBX 17 28 1 0
BITMAP
033000
036000
036000
066000
064000
044000
000000
07F000
0E3800
180C00
300600
600300
600300
400100
C00180
C00180
C00180
C00180
C00180
C00180
C00180
E00300
600300
700700
380E00
1C1C00
0FF800
07E000
ENDCHAR
STARTCHAR ohungarumlaut
ENCODING 337
SWIDTH 368 0
DWIDTH 13 0
BBX 11 19 1 0
BITMAP
0980
1980
1900
1B00
3300
1200
0000
1F00
3F80
71C0
E0E0
C060
C060
C060
C060
E0E0
71C0
3F80
1F00
ENDCHAR
STARTCHAR OE
ENCODING 338
SWIDTH 733 0
DWIDTH 26 0
BBX 24 21 1 0
BITMAP
07FFFF
0E3FFF
181800
301800
601800
601800
401800
C01800
C01800
C01FFE
C01FFF
C01800
C01800
C01800
E01800
601800
701800
301800
3C3800
1FFFFF
07FFFF
ENDCHAR
STARTCHAR oe
ENCODING 339
SWIDTH 609 0
DWIDTH 22 0
BBX 20 14 1 -1
BITMAP
001F80
1F30C0
3FE060
71C020
E0C1F0
C0FFE0
C0FE00
C0C000
C0C030
E0E030
70E060
3FF9C0
1F1F80
000600
ENDCHAR
STARTCHAR Racute
ENCODING 340
SWIDTH 470 0
DWIDTH 17 0
BBX 14 28 2 0
BITMAP
0600
0E00
1C00
3800
3000
0000
0000
FF80
FFE0
C070
C038
C018
C018
C018
C018
C038
C070
FFE0
FF80
C180
C0C0
C060
C060
C030
C038
C018
C00C
C00C
ENDCHAR
STARTCHAR racute
ENCODING 341
SWIDTH 271 0
DWIDTH 10 0
BBX 8 19 2 0
BITMAP
0C
18
30
60
60
00
C0
DC
FE
E3
C0
C0
C0
C0
C0
C0
C0
C0
C0
ENDCHAR
STARTCHAR Rcommaaccent
ENCODING 342
SWIDTH 470 0
DWIDTH 17 0
BBX 14 29 2 -8
BITMAP
FF80
FFE0
C070
C038
C018
C018
C018
C018
C038
C070
FFE0
FF80
C180
C0C0
C060
C060
C030
C038
C018
C00C
C00C
0000
0000
0600
0300
0300
0300
0600
0400
ENDCHAR
STARTCHAR rcommaaccent
ENCODING 343
SWIDTH 271 0
DWIDTH 10 0
BBX 9 21 1 -8
BITMAP
6000
6E00
7F00
7180
6000
6000
6000
6000
6000
6000
6000
6000
6000
0000
0000
4000
6000
2000
6000
6000
C000
ENDCHAR
STARTCHAR Rcaron
ENCODING 344
SWIDTH 470 0
DWIDTH 17 0
BBX 14 28 2 0
BITMAP
1080
1980
1B00
0F00
0E00
0400
0000
FF80
FFE0
C070
C038
C018
C018
C018
C018
C038
C070
FFE0
FF80
C180
C0C0
C060
C060
C030
C038
C018
C00C
C00C
ENDCHAR
STARTCHAR rcaron
ENCODING 345
SWIDTH 271 0
DWIDTH 10 0
BBX 8 19 2 0
BITMAP
66
26
3C
1C
18
00
C0
DC
FE
E3
C0
C0
C0
C0
C0
C0
C0
C0
C0
ENDCHAR
STARTCHAR Sacute
ENCODING 346
SWIDTH 469 0
DWIDTH 17 0
BBX 15 28 1 0
BITMAP
0080
0180
0300
0600
0C00
0000
0000
1FE0
3FF8
7018
E000
C000
C000
C000
E000
7000
3E00
0FE0
01F8
001C
000E
0006
0006
0006
000C
E01C
7FF0
1FC0
ENDCHAR
STARTCHAR sacute
ENCODING 347
SWIDTH 328 0
DWIDTH 12 0
BBX 9 19 2 0
BITMAP
0600
0C00
1800
3000
3000
0000
1C00
7F00
E180
C000
C000
F000
7E00
0F00
0380
0180
8180
FF00
7E00
ENDCHAR
STARTCHAR Scircumflex
ENCODING 348
SWIDTH 469 0
DWIDTH 17 0
BBX 15 28 1 0
BITMAP
0300
0300
0780
0480
0CC0
0840
0000
1FE0
3FF8
7018
E000
C000
C000
C000
E000
7000
3E00
0FE0
01F8
001C
000E
0006
0006
0006
000C
E01C
7FF0
1FC0
ENDCHAR
STARTCHAR scircumflex
ENCODING 349
SWIDTH 328 0
DWIDTH 12 0
BBX 9 20 2 0
BITMAP
1000
1800
3C00
3400
6600
6200
0000
1C00
7F00
E180
C000
C000
F000
7E00
0F00
0380
0180
8180
FF00
7E00
ENDCHAR
STARTCHAR Scedilla
ENCODING 350
SWIDTH 469 0
DWIDTH 17 0
BBX 15 28 1 -7
BITMAP
0FE0
3FF8
7018
E000
C000
C000
C000
E000
7000
3E00
0FE0
01F8
001C
000E
0006
0006
0006
000E
701C
3FF8
0FC0
0100
0100
01E0
0030
0030
01F0
03C0
ENDCHAR
STARTCHAR scedilla
ENCODING 351
SWIDTH 328 0
DWIDTH 11 0
BBX 9 20 1 -7
BITMAP
1C00
7F00
E180
C000
C000
F000
7E00
0F80
0380
0180
C180
FF80
7F00
0800
0800
0F00
0180
0180
0F80
1E00
ENDCHAR
STARTCHAR Scaron
ENCODING 352
SWIDTH 469 0
DWIDTH 17 0
BBX 15 28 1 0
BITMAP
0840
0CC0
0480
0780
0300
0300
0000
1FE0
3FF8
7018
E000
C000
C000
C000
E000
7000
3E00
0FE0
01F8
001C
000E
0006
0006
0006
000C
E01C
7FF0
1FC0
ENDCHAR
STARTCHAR scaron
ENCODING 353
SWIDTH 328 0
DWIDTH 12 0
BBX 9 19 2 0
BITMAP
6200
2600
3400
1C00
1800
0000
1C00
7F00
E180
C000
C000
F000
7E00
0F00
0380
0180
8180
FF00
7E00
ENDCHAR
STARTCHAR Tcommaaccent
ENCODING 354
SWIDTH 381 0
DWIDTH 14 0
BBX 13 29 1 -8
BITMAP
FFF8
FFF8
0600
0600
0600
0600
0600
0600
0600
0600
0600
0600
0600
0600
0600
0600
0600
0600
0600
0600
0600
0400
0000
0600
0600
0200
0200
0600
0C00
ENDCHAR
STARTCHAR tcommaaccent
ENCODING 355
SWIDTH 278 0
DWIDTH 10 0
BBX 10 28 0 -8
BITMAP
0C00
0C00
0C00
0C00
0C00
0C00
0C00
7FC0
FFC0
0C00
0C00
0C00
0C00
0C00
0C00
0C00
0C00
0C00
0C00
0C00
0000
0000
0C00
0C00
0400
0400
0C00
1800
ENDCHAR
STARTCHAR Tcaron
ENCODING 356
SWIDTH 381 0
DWIDTH 14 0
BBX 13 29 1 -1
BITMAP
1080
1980
0900
0F00
0600
0600
0000
FFF8
FFF8
0600
0600
0600
0600
0600
0600
0600
0600
0600
0600
0600
0600
0600
0600
0600
0600
0600
0600
0600
0400
ENDCHAR
STARTCHAR tcaron
ENCODING 357
SWIDTH 394 0
DWIDTH 14 0
BBX 14 20 0 0
BITMAP
0C00
0C18
0C18
0C0C
0C0C
0C0C
0C0C
7FD8
FFD8
0C00
0C00
0C00
0C00
0C00
0C00
0C00
0C00
0C00
0C00
0C00
ENDCHAR
STARTCHAR Tbar
ENCODING 358
SWIDTH 381 0
DWIDTH 14 0
BBX 14 21 0 0
BITMAP
7FF8
FFFC
0300
0300
7FF8
7FF8
0300
0300
0300
0300
0300
0300
0300
0300
0300
0300
0300
0300
0300
0300
0300
ENDCHAR
STARTCHAR tbar
ENCODING 359
SWIDTH 278 0
DWIDTH 10 0
BBX 10 21 0 -1
BITMAP
0C00
0C00
0C00
0C00
0C00
0C00
0C00
7FC0
FFC0
0C00
0C00
7FC0
FFC0
0C00
0C00
0C00
0C00
0C00
0C00
0C00
0800
ENDCHAR
STARTCHAR Utilde
ENCODING 360
SWIDTH 496 0
DWIDTH 18 0
BBX 16 26 1 0
BITMAP
0300
07A0
0CE0
0000
C003
C003
C003
C003
C003
C003
C003
C003
C003
C003
C003
C003
C003
C003
C003
E006
6006
6006
300C
3C3C
1FF8
07E0
ENDCHAR
STARTCHAR utilde
ENCODING 361
SWIDTH 390 0
DWIDTH 14 0
BBX 11 18 1 0
BITMAP
1800
3D80
3700
0000
0000
C060
C060
C060
C060
C060
C060
C060
C0E0
60E0
60E0
71E0
3F60
1E60
ENDCHAR
STARTCHAR Umacron
ENCODING 362
SWIDTH 496 0
DWIDTH 18 0
BBX 16 26 1 0
BITMAP
07E0
0FE0
0000
0000
C003
C003
C003
C003
C003
C003
C003
C003
C003
C003
C003
C003
C003
C003
C003
E006
6006
6006
300C
3C3C
1FF8
07E0
ENDCHAR
STARTCHAR umacron
ENCODING 363
SWIDTH 390 0
DWIDTH 14 0
BBX 11 17 1 0
BITMAP
3F80
3F80
0000
0000
C060
C060
C060
C060
C060
C060
C060
C0E0
60E0
60E0
71E0
3F60
1E60
ENDCHAR
STARTCHAR Ubreve
ENCODING 364
SWIDTH 496 0
DWIDTH 18 0
BBX 16 27 1 0
BITMAP
0460
0460
0660
07C0
0100
C003
C003
C003
C003
C003
C003
C003
C003
C003
C003
C003
C003
C003
C003
C003
E006
6006
6006
300C
3C3C
1FF8
07E0
ENDCHAR
STARTCHAR ubreve
ENCODING 365
SWIDTH 390 0
DWIDTH 14 0
BBX 11 18 1 0
BITMAP
2300
3300
3300
1E00
0000
C060
C060
C060
C060
C060
C060
C060
C0E0
60E0
60E0
71E0
3F60
1E60
ENDCHAR
STARTCHAR Uring
ENCODING 366
SWIDTH 496 0
DWIDTH 18 0
BBX 16 27 1 0
BITMAP
0380
03C0
0640
0240
0380
C003
C003
C003
C003
C003
C003
C003
C003
C003
C003
C003
C003
C003
C003
C003
E006
6006
6006
300C
3C3C
1FF8
07E0
ENDCHAR
STARTCHAR uring
ENCODING 367
SWIDTH 390 0
DWIDTH 14 0
BBX 11 19 1 0
BITMAP
0F00
0F00
1900
0900
0E00
0000
C060
C060
C060
C060
C060
C060
C060
C0E0
60E0
60E0
71E0
3F60
1E60
ENDCHAR
STARTCHAR Uhungarumlaut
ENCODING 368
SWIDTH 496 0
DWIDTH 18 0
BBX 16 28 1 0
BITMAP
0360
0360
0660
0640
06C0
04C0
C003
C003
C003
C003
C003
C003
C003
C003
C003
C003
C003
C003
C003
C003
C003
E006
6006
6006
300C
3C3C
1FF8
07E0
ENDCHAR
STARTCHAR uhungarumlaut
ENCODING 369
SWIDTH 390 0
DWIDTH 14 0
BBX 11 20 1 0
BITMAP
0080
0D80
0D80
1900
1B00
1B00
0000
C060
C060
C060
C060
C060
C060
C060
C0E0
60E0
60E0
71E0
3F60
1E60
ENDCHAR
STARTCHAR Uogonek
ENCODING 370
SWIDTH 496 0
DWIDTH 18 0
BBX 16 26 1 -4
BITMAP
8003
C003
C003
C003
C003
C003
C003
C003
C003
C003
C003
C003
C003
C003
C003
C003
6006
6006
700C
381C
1FF8
0FE0
0180
0300
03E0
01F0
ENDCHAR
STARTCHAR uogonek
ENCODING 371
SWIDTH 390 0
DWIDTH 14 0
BBX 12 19 1 -6
BITMAP
C060
C060
C060
C060
C060
C060
C060
C0E0
60E0
60E0
71E0
3F60
1E60
0060
00C0
0180
0100
01F0
0060
ENDCHAR
STARTCHAR Wcircumflex
ENCODING 372
SWIDTH 692 0
DWIDTH 25 0
BBX 23 28 1 0
BITMAP
003000
003800
007800
006C00
004400
00C400
000000
C00006
C03806
C03806
C03806
C06C06
406C04
606404
60C60C
60C60C
60C30C
21830C
31830C
318188
310188
330088
1300D8
1200D8
1E0058
1E0078
1C0070
0C0030
ENDCHAR
STARTCHAR wcircumflex
ENCODING 373
SWIDTH 501 0
DWIDTH 18 0
BBX 16 20 1 0
BITMAP
0100
0380
0380
06C0
0440
0C60
0000
8000
C183
C383
C383
C2C3
46C6
6666
6466
6C64
2C34
383C
381C
3818
ENDCHAR
STARTCHAR Ycircumflex
ENCODING 374
SWIDTH 386 0
DWIDTH 14 0
BBX 14 29 0 0
BITMAP
0200
0300
0780
0580
0CC0
0840
0000
0000
C00C
6018
6018
3030
3030
1860
1860
0CC0
0CC0
0780
0780
0300
0300
0300
0300
0300
0300
0300
0300
0300
0300
ENDCHAR
STARTCHAR ycircumflex
ENCODING 375
SWIDTH 337 0
DWIDTH 12 0
BBX 10 28 1 -8
BITMAP
0800
0C00
1E00
1200
3300
2100
0000
0040
C040
C0C0
40C0
6080
6180
3180
3100
1B00
1B00
0F00
0E00
0600
0600
0C00
0C00
0C00
1800
1800
1800
1000
ENDCHAR
STARTCHAR Ydieresis
ENCODING 376
SWIDTH 386 0
DWIDTH 14 0
BBX 14 25 0 0
BITMAP
0CC0
0000
0000
0000
C00C
6018
6018
3030
3030
1860
1860
0CC0
0CC0
0780
0780
0300
0300
0300
0300
0300
0300
0300
0300
0300
0300
ENDCHAR
STARTCHAR Zacute
ENCODING 377
SWIDTH 407 0
DWIDTH 15 0
BBX 13 28 1 0
BITMAP
0380
0300
0600
0C00
1800
0000
0000
FFF8
FFF0
0030
0060
0060
00C0
0080
0180
0300
0300
0600
0600
0C00
0800
1800
3000
3000
6000
4000
FFF8
FFF8
ENDCHAR
STARTCHAR zacute
ENCODING 378
SWIDTH 325 0
DWIDTH 12 0
BBX 10 20 1 0
BITMAP
0200
0600
0C00
1800
3000
2000
0000
7F80
FF80
0180
0300
0600
0C00
0C00
1800
3000
6000
6000
FFC0
FFC0
ENDCHAR
STARTCHAR Zdotaccent
ENCODING 379
SWIDTH 407 0
DWIDTH 15 0
BBX 13 25 1 0
BITMAP
0600
0000
0000
0000
FFF8
FFF0
0030
0060
0060
00C0
0080
0180
0300
0300
0600
0600
0C00
0800
1800
3000
3000
6000
4000
FFF8
FFF8
ENDCHAR
STARTCHAR zdotaccent
ENCODING 380
SWIDTH 325 0
DWIDTH 12 0
BBX 10 17 1 0
BITMAP
0800
0C00
0000
0000
7F80
FF80
0180
0300
0600
0C00
0C00
1800
3000
6000
6000
FFC0
FFC0
ENDCHAR
STARTCHAR Zcaron
ENCODING 381
SWIDTH 407 0
DWIDTH 15 0
BBX 13 28 1 0
BITMAP
1880
0980
0D00
0700
0600
0000
0000
FFF8
FFF0
0030
0060
0060
00C0
0080
0180
0300
0300
0600
0600
0C00
0800
1800
3000
3000
6000
4000
FFF8
FFF8
ENDCHAR
STARTCHAR zcaron
ENCODING 382
SWIDTH 325 0
DWIDTH 12 0
BBX 10 20 1 0
BITMAP
2200
2300
3600
1400
1C00
0800
0000
7F80
FF80
0180
0300
0600
0C00
0C00
1800
3000
6000
6000
FFC0
FFC0
ENDCHAR
STARTCHAR florin
ENCODING 402
SWIDTH 407 0
DWIDTH 15 0
BBX 14 21 0 0
BITMAP
0070
00F8
018C
0384
0300
0300
0300
0300
0300
0FF0
0FF0
0300
0300
0300
0300
0300
0300
0300
8600
FE00
7800
ENDCHAR
STARTCHAR AEacute
ENCODING 508
SWIDTH 703 0
DWIDTH 25 0
BBX 24 30 0 0
BITMAP
000080
0000C0
000180
000300
000600
000C00
000000
000000
001FFF
001FFF
003800
003800
007800
005800
00D800
009800
019800
011800
03FFFE
03FFFF
061800
041800
0C1800
081800
181800
301800
301800
601800
601FFF
C01FFF
ENDCHAR
STARTCHAR aeacute
ENCODING 509
SWIDTH 617 0
DWIDTH 22 0
BBX 20 21 1 0
BITMAP
002000
007000
00E000
01C000
018000
030000
000000
00C000
00DF80
1EF0C0
7FE060
61C020
C0C1F0
C0FFE0
C0FE00
C0C000
C0C020
61E070
7FF0E0
1EFFC0
00CF00
ENDCHAR
STARTCHAR Oslashacute
ENCODING 510
SWIDTH 517 0
DWIDTH 19 0
BBX 17 29 1 -1
BITMAP
006000
006000
00C000
018000
030000
020000
000000
03F000
0FF800
183C00
307600
606300
606300
606300
C0C180
C0C180
C0C180
C18180
C18180
C18180
C18180
E30380
630300
630700
360E00
3E1C00
1FF800
07F000
0C0000
ENDCHAR
STARTCHAR oslashacute
ENCODING 511
SWIDTH 367 0
DWIDTH 13 0
BBX 11 22 1 -3
BITMAP
0300
0700
0E00
0C00
1800
0180
0300
1F00
3F80
73C0
E2E0
C660
C660
C460
CC60
ECE0
7DC0
3F80
1F00
1800
1800
1000
ENDCHAR
STARTCHAR Scommaaccent
ENCODING 536
SWIDTH 469 0
DWIDTH 17 0
BBX 15 29 1 -8
BITMAP
1FE0
3FF8
7018
E000
C000
C000
C000
E000
7000
3E00
0FE0
01F8
001C
000E
0006
0006
0006
000C
E01C
7FF0
1FC0
0000
0000
0300
0180
0180
0180
0380
0300
ENDCHAR
STARTCHAR scommaaccent
ENCODING 537
SWIDTH 328 0
DWIDTH 12 0
BBX 9 20 2 -7
BITMAP
1C00
7F00
E180
C000
C000
F000
7E00
0F00
0380
0180
8180
FF00
7E00
0000
1000
1800
0800
0C00
1800
1800
ENDCHAR
STARTCHAR dotlessj
ENCODING 567
SWIDTH 166 0
DWIDTH 6 0
BBX 9 22 -5 -8
BITMAP
0180
0180
0180
0180
0180
0180
0180
0180
0180
0180
0180
0180
0180
0180
0180
0180
0180
8180
C300
E300
7E00
3C00
ENDCHAR
STARTCHAR circumflex
ENCODING 710
SWIDTH 191 0
DWIDTH 7 0
BBX 7 5 0 14
BITMAP
30
38
6C
6C
C6
ENDCHAR
STARTCHAR caron
ENCODING 711
SWIDTH 191 0
DWIDTH 7 0
BBX 7 5 0 14
BITMAP
C6
4C
6C
38
30
ENDCHAR
STARTCHAR breve
ENCODING 728
SWIDTH 203 0
DWIDTH 7 0
BBX 7 4 0 14
BITMAP
C6
C6
6C
3C
ENDCHAR
STARTCHAR dotaccent
ENCODING 729
SWIDTH 71 0
DWIDTH 3 0
BBX 2 1 0 15
BITMAP
C0
ENDCHAR
STARTCHAR ring
ENCODING 730
SWIDTH 161 0
DWIDTH 6 0
BBX 5 5 0 14
BITMAP
78
78
C8
48
70
ENDCHAR
STARTCHAR ogonek
ENCODING 731
SWIDTH 167 0
DWIDTH 6 0
BBX 6 6 0 -4
BITMAP
10
38
70
C0
E0
7C
ENDCHAR
STARTCHAR tilde
ENCODING 732
SWIDTH 218 0
DWIDTH 8 0
BBX 7 3 0 14
BITMAP
30
7A
CE
ENDCHAR
STARTCHAR hungarumlaut
ENCODING 733
SWIDTH 200 0
DWIDTH 7 0
BBX 7 6 0 14
BITMAP
06
26
64
6C
4C
CC
ENDCHAR
STARTCHAR uni1E02
ENCODING 7682
SWIDTH 450 0
DWIDTH 16 0
BBX 13 25 2 0
BITMAP
0C00
0800
0000
0000
FF80
FFE0
C0E0
C070
C030
C030
C030
C060
C1C0
FF80
FFE0
C070
C030
C018
C018
C018
C018
C038
C070
FFE0
FF80
ENDCHAR
STARTCHAR uni1E03
ENCODING 7683
SWIDTH 414 0
DWIDTH 15 0
BBX 12 21 2 0
BITMAP
C000
C000
C000
C000
C000
C400
C000
C000
C000
DFC0
F9E0
E060
E030
C030
C030
C030
C070
E0E0
FFC0
5F80
4000
ENDCHAR
STARTCHAR uni1E0A
ENCODING 7690
SWIDTH 492 0
DWIDTH 18 0
BBX 15 25 2 0
BITMAP
0C00
0400
0000
FC00
FF80
C3C0
C0F0
C038
C018
C00C
C00C
C006
C006
C006
C006
C006
C006
C00C
C00C
C018
C038
C0F0
C7C0
FF00
F800
ENDCHAR
STARTCHAR uni1E0B
ENCODING 7691
SWIDTH 408 0
DWIDTH 15 0
BBX 12 21 1 0
BITMAP
0030
0030
0030
0030
0030
0630
0030
0030
0F30
3FF0
70F0
6070
C030
C030
C030
C030
4030
6070
39F0
1FB0
0030
ENDCHAR
STARTCHAR uni1E1E
ENCODING 7710
SWIDTH 398 0
DWIDTH 14 0
BBX 12 26 2 -1
BITMAP
0600
0600
0000
0000
FFF0
FFF0
C000
C000
C000
C000
C000
C000
C000
C000
FFE0
FFE0
C000
C000
C000
C000
C000
C000
C000
C000
C000
C000
ENDCHAR
STARTCHAR uni1E1F
ENCODING 7711
SWIDTH 314 0
DWIDTH 11 0
BBX 11 25 0 0
BITMAP
0300
0300
0000
0700
0FC0
0CC0
1860
1800
1800
1800
1800
1800
FF80
FF80
1800
1800
1800
1800
1800
1800
1800
1800
1800
1800
1800
ENDCHAR
STARTCHAR uni1E40
ENCODING 7744
SWIDTH 648 0
DWIDTH 23 0
BBX 21 25 1 0
BITMAP
002000
006000
000000
200000
300060
3800E0
3800E0
3800E0
6C01A0
6C01A0
6C0320
660330
660330
620630
630630
630630
610C30
618C30
618C30
60D810
40D810
40D018
407018
407018
C02018
ENDCHAR
STARTCHAR uni1E41
ENCODING 7745
SWIDTH 623 0
DWIDTH 22 0
BBX 19 16 2 0
BITMAP
006000
000000
000000
CF0700
DF9F80
F199C0
F0F0C0
E0F0C0
E0F060
E06060
C06060
C06060
C06060
C06060
C06060
C06060
ENDCHAR
STARTCHAR uni1E56
ENCODING 7766
SWIDTH 432 0
DWIDTH 16 0
BBX 13 25 2 0
BITMAP
0600
0400
0000
0000
FF80
FFE0
C070
C038
C018
C018
C018
C018
C038
C070
FFE0
FF80
C000
C000
C000
C000
C000
C000
C000
C000
C000
ENDCHAR
STARTCHAR uni1E57
ENCODING 7767
SWIDTH 392 0
DWIDTH 14 0
BBX 11 24 2 -8
BITMAP
0400
0000
0000
C000
CF00
FFC0
F0C0
E060
C060
C060
C060
C060
E060
F1C0
FFC0
DF00
C000
C000
C000
C000
C000
C000
C000
C000
ENDCHAR
STARTCHAR uni1E60
ENCODING 7776
SWIDTH 469 0
DWIDTH 17 0
BBX 15 26 1 0
BITMAP
0300
0300
0000
0000
0000
1FE0
3FF8
7018
E000
C000
C000
C000
E000
7000
3E00
0FE0
01F8
001C
000E
0006
0006
0006
000C
E01C
7FF0
1FC0
ENDCHAR
STARTCHAR uni1E61
ENCODING 7777
SWIDTH 328 0
DWIDTH 12 0
BBX 9 16 2 0
BITMAP
1800
0000
0000
1C00
7F00
E180
C000
C000
F000
7E00
0F00
0380
0180
8180
FF00
7E00
ENDCHAR
STARTCHAR uni1E6A
ENCODING 7786
SWIDTH 381 0
DWIDTH 14 0
BBX 13 26 1 -1
BITMAP
0600
0600
0000
0000
FFF8
FFF8
0600
0600
0600
0600
0600
0600
0600
0600
0600
0600
0600
0600
0600
0600
0600
0600
0600
0600
0600
0400
ENDCHAR
STARTCHAR uni1E6B
ENCODING 7787
SWIDTH 278 0
DWIDTH 10 0
BBX 10 24 0 0
BITMAP
0800
0C00
0000
0000
0C00
0C00
0C00
0C00
0C00
0C00
0C00
7FC0
FFC0
0C00
0C00
0C00
0C00
0C00
0C00
0C00
0C00
0C00
0C00
0C00
ENDCHAR
STARTCHAR Wgrave
ENCODING 7808
SWIDTH 692 0
DWIDTH 25 0
BBX 23 27 1 0
BITMAP
006000
003000
001800
001C00
000800
000000
C00006
C03806
C03806
C03806
C06C06
406C04
606404
60C60C
60C60C
60C30C
21830C
31830C
318188
310188
330088
1300D8
1200D8
1E0058
1E0078
1C0070
0C0030
ENDCHAR
STARTCHAR wgrave
ENCODING 7809
SWIDTH 501 0
DWIDTH 18 0
BBX 16 19 1 0
BITMAP
0300
0300
0180
00C0
0040
0000
8000
C183
C383
C383
C2C3
46C6
6666
6466
6C64
2C34
383C
381C
3818
ENDCHAR
STARTCHAR Wacute
ENCODING 7810
SWIDTH 692 0
DWIDTH 25 0
BBX 23 28 1 0
BITMAP
000400
000C00
001800
003000
006000
004000
000000
C00006
C03806
C03806
C03806
C06C06
406C04
606404
60C60C
60C60C
60C30C
21830C
31830C
318188
310188
330088
1300D8
1200D8
1E0058
1E0078
1C0070
0C0030
ENDCHAR
STARTCHAR wacute
ENCODING 7811
SWIDTH 501 0
DWIDTH 18 0
BBX 16 19 1 0
BITMAP
00C0
0180
0300
0600
0C00
0000
8000
C183
C383
C383
C2C3
46C6
6666
6466
6C64
2C34
383C
381C
3818
ENDCHAR
STARTCHAR Wdieresis
ENCODING 7812
SWIDTH 692 0
DWIDTH 25 0
BBX 23 25 1 0
BITMAP
004C00
004800
000000
000000
C00006
C03806
C03806
C03806
C06C06
406C04
606404
60C60C
60C60C
60C30C
21830C
31830C
318188
310188
330088
1300D8
1200D8
1E0058
1E0078
1C0070
0C0030
ENDCHAR
STARTCHAR wdieresis
ENCODING 7813
SWIDTH 501 0
DWIDTH 18 0
BBX 16 17 1 0
BITMAP
0480
06C0
0000
0000
8000
C183
C383
C383
C2C3
46C6
6666
6466
6C64
2C34
383C
381C
3818
ENDCHAR
STARTCHAR Ygrave
ENCODING 7922
SWIDTH 386 0
DWIDTH 14 0
BBX 14 28 0 0
BITMAP
0400
0E00
0600
0300
0180
0000
0000
C00C
6018
6018
3030
3030
1860
1860
0CC0
0CC0
0780
0780
0300
0300
0300
0300
0300
0300
0300
0300
0300
0300
ENDCHAR
STARTCHAR ygrave
ENCODING 7923
SWIDTH 337 0
DWIDTH 12 0
BBX 10 27 1 -8
BITMAP
3000
1800
0C00
0E00
0600
0000
0040
C040
C0C0
40C0
6080
6180
3180
3100
1B00
1B00
0F00
0E00
0600
0600
0C00
0C00
0C00
1800
1800
1800
1000
ENDCHAR
STARTCHAR endash
ENCODING 8211
SWIDTH 385 0
DWIDTH 14 0
BBX 13 2 0 8
BITMAP
7FF8
FFF8
ENDCHAR
STARTCHAR emdash
ENCODING 8212
SWIDTH 507 0
DWIDTH 18 0
BBX 18 2 0 8
BITMAP
7FFFC0
FFFFC0
ENDCHAR
STARTCHAR quoteleft
ENCODING 8216
SWIDTH 133 0
DWIDTH 5 0
BBX 3 8 1 11
BITMAP
C0
C0
C0
80
C0
C0
E0
60
ENDCHAR
STARTCHAR quoteright
ENCODING 8217
SWIDTH 120 0
DWIDTH 4 0
BBX 3 8 1 11
BITMAP
80
C0
C0
60
60
60
C0
C0
ENDCHAR
STARTCHAR quotedblleft
ENCODING 8220
SWIDTH 251 0
DWIDTH 9 0
BBX 7 10 1 10
BITMAP
40
C4
CC
CC
8C
8C
CC
C6
66
20
ENDCHAR
STARTCHAR quotedblright
ENCODING 8221
SWIDTH 242 0
DWIDTH 9 0
BBX 7 10 1 10
BITMAP
08
0C
CC
46
66
66
66
C6
CC
88
ENDCHAR
STARTCHAR dagger
ENCODING 8224
SWIDTH 262 0
DWIDTH 9 0
BBX 8 32 1 -6
BITMAP
18
18
18
18
18
18
18
18
18
18
18
18
18
FF
FF
18
18
18
18
18
18
18
18
18
18
18
18
18
18
18
18
10
ENDCHAR
STARTCHAR daggerdbl
ENCODING 8225
SWIDTH 262 0
DWIDTH 9 0
BBX 9 31 0 -5
BITMAP
0800
0C00
0C00
0C00
0C00
0C00
0C00
0C00
0C00
0C00
0C00
0C00
0C00
7F80
7F80
0C00
0C00
0C00
0C00
0C00
0C00
0C00
0C00
0C00
7F80
FF80
0C00
0C00
0C00
0C00
0C00
ENDCHAR
STARTCHAR bullet
ENCODING 8226
SWIDTH 143 0
DWIDTH 5 0
BBX 3 4 1 7
BITMAP
E0
E0
E0
E0
ENDCHAR
STARTCHAR ellipsis
ENCODING 8230
SWIDTH 274 0
DWIDTH 10 0
BBX 10 2 0 0
BITMAP
CC80
4CC0
ENDCHAR
STARTCHAR perthousand
ENCODING 8240
SWIDTH 670 0
DWIDTH 24 0
BBX 22 18 1 0
BITMAP
3C00C0
660380
C30700
C30E00
C31C00
663800
7E7000
10E0F8
01C1CC
038184
071F04
0E3F84
1C618C
3861F8
7061A0
606300
003F00
001C00
ENDCHAR
STARTCHAR fraction
ENCODING 8260
SWIDTH 237 0
DWIDTH 9 0
BBX 8 22 0 -1
BITMAP
03
03
03
06
06
06
04
0C
0C
0C
18
18
18
10
30
30
30
60
60
60
40
C0
ENDCHAR
STARTCHAR colonmonetary
ENCODING 8353
SWIDTH 437 0
DWIDTH 16 0
BBX 14 25 1 -2
BITMAP
0200
0260
07C0
1FE0
3EF0
76D0
66C0
66C0
E480
C480
CD80
CD80
CD80
CD80
C980
C900
C900
7B0C
7B18
7B38
3B70
3FE0
3F80
3600
0200
ENDCHAR
STARTCHAR franc
ENCODING 8355
SWIDTH 437 0
DWIDTH 16 0
BBX 15 21 0 0
BITMAP
1FFE
1FFE
1800
1800
1800
1800
1800
1800
1800
1FFC
1FFC
1800
1800
1800
1800
FF00
FF80
1800
1800
1800
1800
ENDCHAR
STARTCHAR lira
ENCODING 8356
SWIDTH 444 0
DWIDTH 16 0
BBX 15 22 0 0
BITMAP
00F0
03FC
070E
0606
0E02
0C00
0C00
0C00
0C00
3FF0
3FF0
0C00
0C00
3FF0
3FF0
0C00
0C00
0C00
0C00
0C00
FFFE
FFFE
ENDCHAR
STARTCHAR Euro
ENCODING 8364
SWIDTH 454 0
DWIDTH 16 0
BBX 16 21 0 0
BITMAP
03E0
0770
0C18
1C18
180C
1808
3000
3000
3000
3FF0
FFE0
3000
3020
7FF0
FC02
1807
1806
0C0C
0E1C
07F8
03E0
ENDCHAR
STARTCHAR trademark
ENCODING 8482
SWIDTH 741 0
DWIDTH 27 0
BBX 26 13 0 8
BITMAP
FFF60300
FFF70700
06070780
06050D80
060D8D80
060D8980
060C9980
060CD880
060CD0C0
060C70C0
060870C0
060860C0
06000000
ENDCHAR
STARTCHAR minus
ENCODING 8722
SWIDTH 311 0
DWIDTH 11 0
BBX 11 2 0 8
BITMAP
7FE0
FFE0
ENDCHAR
STARTCHAR notequal
ENCODING 8800
SWIDTH 307 0
DWIDTH 11 0
BBX 9 12 1 3
BITMAP
0180
0300
0300
FF80
FF80
0C00
1800
FF80
FF80
3000
6000
4000
ENDCHAR
STARTCHAR lessequal
ENCODING 8804
SWIDTH 351 0
DWIDTH 13 0
BBX 11 13 1 3
BITMAP
0180
0300
0E00
1C00
7000
E000
7800
1F00
03C0
0000
0000
FFC0
FFE0
ENDCHAR
STARTCHAR greaterequal
ENCODING 8805
SWIDTH 351 0
DWIDTH 13 0
BBX 11 13 1 3
BITMAP
3000
3800
0E00
0700
01C0
00C0
07C0
1E00
7800
0000
0000
FFC0
FFE0
ENDCHAR
STARTCHAR .notdef
ENCODING -1
SWIDTH 280 0
DWIDTH 10 0
BBX 1 1 0 0
BITMAP
00
ENDCHAR
STARTCHAR commaaccent
ENCODING -1
SWIDTH 100 0
DWIDTH 4 0
BBX 3 6 0 -8
BITMAP
40
60
20
60
60
C0
ENDCHAR
STARTCHAR undercommaaccent
ENCODING -1
SWIDTH 100 0
DWIDTH 4 0
BBX 3 6 0 -8
BITMAP
40
60
20
60
60
C0
ENDCHAR
ENDFONT
